<?xml version="1.0" encoding="utf-8"?>
<!-- Generator: Adobe Illustrator 21.0.0, SVG Export Plug-In . SVG Version: 6.00 Build 0)  -->
<svg version="1.1" id="Layer_1" xmlns="http://www.w3.org/2000/svg" xmlns:xlink="http://www.w3.org/1999/xlink" x="0px" y="0px"
	 width="3000px" height="2000px" viewBox="0 0 3000 2000" style="enable-background:new 0 0 3000 2000;" xml:space="preserve">
<style type="text/css">
	.st0{fill-rule:evenodd;clip-rule:evenodd;fill:#352969;}
	.st1{fill-rule:evenodd;clip-rule:evenodd;fill:#4C3478;}
	.st2{fill-rule:evenodd;clip-rule:evenodd;fill:#6A5199;}
	.st3{fill-rule:evenodd;clip-rule:evenodd;fill:#2D235C;}
	.st4{fill-rule:evenodd;clip-rule:evenodd;fill:#FAAD96;}
	.st5{fill-rule:evenodd;clip-rule:evenodd;fill:#ED8463;}
	.st6{fill-rule:evenodd;clip-rule:evenodd;fill:#392D70;}
	.st7{fill-rule:evenodd;clip-rule:evenodd;fill:#EA6371;}
	.st8{fill-rule:evenodd;clip-rule:evenodd;fill:#F7A28E;}
	.st9{fill-rule:evenodd;clip-rule:evenodd;fill:#F7AE9E;}
</style>
<g>
	<rect y="0" class="st0" width="3000" height="2000"/>
	<path class="st1" d="M710.5,1004.5c-9.5,9.6,19.8,65.2-55-22.5c-21.5-25.2-99-86.2-41.2,6.1c18.7,29.8-161.6-129.1-116.3-51.6
		c19.9,34,104.4,69-3.3,26.6c-41.7-16.4-42.4,1.1,23.3,27.8c81.6,33.1,147.6,75.7,43.2-20.3c-10.6-9.8,88.6,70.1,76.5,34.4
		c-5.3-15.6,76.5,72.4,88.7,37.7c0.1-0.4,126.2,78.8,138,84.4C775.7,1073.3,746.3,968.3,710.5,1004.5z"/>
	<path class="st2" d="M2504.9,444.8c30.4,0.4,48.5,6.3,48.5,18.1c0,28.9-108.9,82.1-243.3,118.9c-47.9,13.1-92.5,22.3-130.1,27.5
		c44.4,0.6,115.1-10.5,194.8-32.3c134.4-36.8,243.3-90,243.3-118.9C2618.1,439.5,2573,435.5,2504.9,444.8z"/>
	<path class="st1" d="M294.7,377.2c-91.5,64.7-111.4-5.8-165.5,2.2c-39.1,5.8-52.3,41-84.6,41.9c-19.6,0.5-30.1-11-44.7-17.5v33.9
		l482.2,0C455.9,408.5,394.5,306.6,294.7,377.2z"/>
	<path class="st1" d="M2761.4,762c-128.5-90.9-207.5,40.2-241.4,77.9l480,0v-67.3c-7.6-3.6-16-6.4-25.6-7.8
		C2904.8,754.6,2879.2,845.3,2761.4,762z"/>
	<path class="st3" d="M0,1884.7V2000h3000v-115.3c-386-136.4-915.6-220.7-1500-220.7S386,1748.3,0,1884.7z"/>
	<g>
		<path class="st3" d="M1098.5,1511H692.6c-13.6,0-24.7,11.1-24.7,24.7v0c0,13.6,11.1,24.7,24.7,24.7h405.9
			c13.6,0,24.7-11.1,24.7-24.7v0C1123.2,1522.1,1112.1,1511,1098.5,1511z"/>
		<path class="st3" d="M628.3,1511h-70.5c-13.6,0-24.7,11.1-24.7,24.7v0c0,13.6,11.1,24.7,24.7,24.7h70.5
			c13.6,0,24.7-11.1,24.7-24.7v0C652.9,1522.1,641.8,1511,628.3,1511z"/>
	</g>
	<path class="st1" d="M2190.5,1535.4c-284,0-59.7-3.9,16.3-63.6c173.3-136.3-381.3,64.6-311.8,13.3c215-158.7-16.9-89.1-88.6-50.8
		c-249.6,133.1-132.6,32.5-145.7,1.9c-49.2-114.7-210.6,98.8-461.5,141.8c31.9-2.2,390.9-69.7,390.9-68.8
		c-3.4,90.1,262.6-37.2,236.4-6.4c-59.9,70.5,238.6-22.7,205.5-9.9c-324.7,125.4-135.7,87.3,80.3,85.1
		C2286.4,1576.2,2300.5,1535.4,2190.5,1535.4z"/>
	<g>
		<path class="st1" d="M1599.2,1006.9c-23.8-21.9-54.8-30.2-82.7-25c-2.8,28.3,8.1,58.7,31.9,80.6c23.8,21.9,54.8,30.2,82.7,25
			C1633.9,1059.2,1623,1028.8,1599.2,1006.9z"/>
		<path class="st1" d="M1475.3,983c-20,21.9-25.7,52.2-18,80.6c28.8,5.3,58.4-3,78.4-25c20-21.9,25.7-52.2,18-80.6
			C1525,952.8,1495.4,961.1,1475.3,983z"/>
		<path class="st1" d="M1768.2,1005.7l-93.9-13.3c-12.2-1.7-22.6,6.7-23.3,18.7c-0.7,12.1,8.7,23.2,20.9,24.9l93.9,13.3
			c12.2,1.7,22.6-6.7,23.3-18.7C1789.8,1018.5,1780.4,1007.4,1768.2,1005.7z"/>
		<path class="st1" d="M1740,915.6c-9.8-8.1-23.7-7.3-31,1.8l-143.7,178.9c-7.3,9.1-5.3,23,4.5,31.1c9.8,8.1,23.7,7.3,31-1.8
			l143.7-178.9C1751.8,937.6,1749.7,923.7,1740,915.6z"/>
		<path class="st1" d="M1345.5,1068.6c-20,21.9-25.7,52.2-18,80.6c28.8,5.3,58.4-3,78.4-25c20-21.9,25.7-52.2,18-80.6
			C1395.2,1038.4,1365.5,1046.7,1345.5,1068.6z"/>
		<path class="st1" d="M1595.5,1132.7c-23.8-21.9-54.8-30.2-82.7-25c-2.8,28.3,8.1,58.7,31.9,80.6c23.8,21.9,54.8,30.2,82.7,25
			C1630.2,1184.9,1619.3,1154.6,1595.5,1132.7z"/>
		<path class="st3" d="M1605.1,1089.3c-20,21.9-25.7,52.2-18,80.6c28.8,5.3,58.4-3,78.4-25c20-21.9,25.7-52.2,18-80.6
			C1654.7,1059.1,1625.1,1067.4,1605.1,1089.3z"/>
		<path class="st3" d="M1672.2,1115.5c-20,21.9-25.7,52.2-18,80.6c28.8,5.3,58.4-3,78.4-25c20-21.9,25.7-52.2,18-80.6
			C1721.9,1085.3,1692.2,1093.6,1672.2,1115.5z"/>
		<path class="st3" d="M1476.2,1148c-8.9-9.1-22.9-9.9-31.3-1.8c-8.4,8.1-8,22,0.9,31.1l174.3,178.9c8.9,9.1,22.9,9.9,31.3,1.8
			c8.4-8.1,8-22-0.9-31.1L1476.2,1148z"/>
		<path class="st3" d="M1514.1,1200.4l-91.6,13.3c-11.9,1.7-19.3,12.9-16.6,24.9c2.7,12.1,14.6,20.4,26.5,18.7l91.6-13.3
			c11.9-1.7,19.3-12.9,16.6-24.9C1537.9,1207.1,1526,1198.7,1514.1,1200.4z"/>
		<polygon class="st3" points="1567.4,1128.8 1616.2,1698.6 1735.4,1698.6 1686.6,1128.8 		"/>
		<path class="st3" d="M1702.7,1192.5c-20,21.9-25.7,52.2-18,80.6c28.8,5.3,58.4-3,78.4-25c20-21.9,25.7-52.2,18-80.6
			C1752.4,1162.2,1722.8,1170.5,1702.7,1192.5z"/>
		<path class="st3" d="M1811.2,1019.5c-9.8-8.1-23.7-7.3-31,1.8l-143.7,178.9c-7.3,9.1-5.3,23,4.5,31.1c9.8,8.1,23.7,7.3,31-1.8
			l143.7-178.9C1823,1041.6,1821,1027.6,1811.2,1019.5z"/>
		<path class="st3" d="M1710.7,1026.1c-6.4-10.9-20-15.2-30.4-9.7c-10.4,5.5-13.6,18.7-7.2,29.6l42.2,71.3
			c6.4,10.9,20,15.2,30.4,9.7c10.4-5.5,13.6-18.7,7.2-29.6L1710.7,1026.1z"/>
		<path class="st3" d="M1826,1179.2c-23.8-21.9-54.8-30.2-82.7-25c-2.8,28.3,8.1,58.7,31.9,80.6c23.8,21.9,54.8,30.2,82.7,25
			C1860.7,1231.4,1849.8,1201.1,1826,1179.2z"/>
		<path class="st1" d="M1687.2,980.4c-23.8-21.9-54.8-30.2-82.7-25c-2.8,28.3,8.1,58.7,31.9,80.6c23.8,21.9,54.8,30.2,82.7,25
			C1721.9,1032.7,1711,1002.3,1687.2,980.4z"/>
		<path class="st3" d="M1772.4,986.5c-20,21.9-25.7,52.2-18,80.6c28.8,5.3,58.4-3,78.4-25c20-21.9,25.7-52.2,18-80.6
			C1822.1,956.3,1792.4,964.6,1772.4,986.5z"/>
		<path class="st1" d="M1406.9,1175.5c-23.8-21.9-54.8-30.2-82.7-25c-2.8,28.3,8.1,58.7,31.9,80.6c23.8,21.9,54.8,30.2,82.7,25
			C1441.6,1227.7,1430.7,1197.4,1406.9,1175.5z"/>
		<path class="st3" d="M1751.8,1036.5c-4.2,23.8,3.2,50.2,22.3,70.2l0.4,0.4l7.2-25.3l-2.5,29.8c1.9,1.7,3.8,3.2,5.7,4.7
			c0.5-6,1.3-10.7,2.3-13.4c2.6-6.9,6,2,7.7,20c15.2,8.5,32.3,11.9,48.6,10.1c4.2-23.8-3.2-50.2-22.3-70.2
			C1802.2,1042.7,1776,1033.8,1751.8,1036.5z"/>
		<path class="st3" d="M1645.5,1046.9c-15.6,20-18.5,46.4-10.2,70.2c16.6,1.8,33.1-1.6,46.9-10.1c-1.3-18,0.5-26.9,4.3-20
			c1.5,2.7,3.1,7.5,4.6,13.4c1.7-1.5,3.3-3.1,4.9-4.7l-7.6-29.8l11.5,25.3l0.3-0.4c15.6-20,18.5-46.4,10.2-70.2
			C1685.7,1017.9,1661.1,1026.8,1645.5,1046.9z"/>
		<path class="st1" d="M1402.4,1232.1c1.3,18-0.5,26.9-4.3,20c-1.5-2.7-3.1-7.5-4.6-13.4c-1.7,1.5-3.3,3.1-4.9,4.7l7.6,29.8
			l-11.5-25.3l-0.3,0.4c-15.6,20-18.5,46.4-10.2,70.2c24.7,2.7,49.3-6.3,64.9-26.3c15.6-20,18.5-46.4,10.2-70.2
			C1432.7,1220.2,1416.1,1223.6,1402.4,1232.1z"/>
		<path class="st1" d="M1472.6,1083.2c-20,21.9-25.7,52.2-18,80.6c28.8,5.3,58.4-3,78.4-25c20-21.9,25.7-52.2,18-80.6
			C1522.3,1053,1492.7,1061.3,1472.6,1083.2z"/>
		<path class="st1" d="M1378.1,1070c-4.2,23.8,3.2,50.2,22.3,70.2l0.4,0.4l7.2-25.3l-2.5,29.8c1.9,1.7,3.8,3.2,5.7,4.7
			c0.5-6,1.3-10.7,2.3-13.4c2.6-6.9,6,2,7.7,20c15.2,8.5,32.3,11.9,48.6,10.1c4.2-23.8-3.2-50.2-22.3-70.2
			C1428.4,1076.3,1402.3,1067.3,1378.1,1070z"/>
		<path class="st1" d="M1383.8,1071.6c8.7-1,17.6-0.5,26.3,1.5c-10.5-3.2-21.5-4.2-32-3.1c-4.2,23.8,3.2,50.2,22.3,70.2l0.4,0.4
			l1.1-3.7C1385.9,1117.6,1379.9,1093.5,1383.8,1071.6z"/>
		<path class="st1" d="M1419.1,1137.9c-0.2,0.6-0.4,1.2-0.6,2c1,3.9,2,9.5,2.6,16.5c7.1,4,14.7,6.8,22.3,8.6
			c-5.7-1.7-11.2-4.1-16.6-7.1C1425.1,1140,1421.7,1131.1,1419.1,1137.9z"/>
		<path class="st1" d="M1406.4,1142.2l-0.4-0.4l-0.4-0.4l-0.3,3.8c1.9,1.7,3.8,3.2,5.7,4.7c0.1-1,0.2-2,0.3-3l-0.3-0.2l2.5-29.8
			L1406.4,1142.2z"/>
		<path class="st1" d="M1449.2,1222c-16.6-1.8-33.1,1.6-46.8,10.1c0.4,5.4,0.5,9.9,0.4,13.5c1,3.1,1.9,5.6,2.9,7.3
			c3.8,6.9,5.7-2,4.3-20c11.7-7.2,25.4-10.8,39.4-10.6L1449.2,1222z"/>
		<path class="st1" d="M1384.4,1248.3c-15.6,20-18.5,46.4-10.2,70.2c2.5,0.3,5,0.4,7.5,0.5c-7.4-21.5-5.6-45,6.3-64.1l-3.2-7
			L1384.4,1248.3z"/>
		<path class="st1" d="M1398.1,1252.1c-1.5-2.7-3.1-7.5-4.6-13.4c-1.7,1.5-3.3,3.1-4.9,4.7l1.9,7.6c0.5-0.6,0.9-1.3,1.4-1.9l0.3-0.4
			l11.5,25.3l-5.5-21.5C1398.2,1252.4,1398.1,1252.2,1398.1,1252.1z"/>
		<path class="st1" d="M1424,1190.7c-20.6-8.3-42.2-5.7-58.1,5.2c5.8,19.7,20.7,37,41.3,45.3c20.6,8.3,42.2,5.7,58.1-5.2
			C1459.5,1216.4,1444.6,1199,1424,1190.7z"/>
		<path class="st1" d="M1451.8,916.7c-20,21.9-25.7,52.2-18,80.6c28.8,5.3,58.4-3,78.4-25c20-21.9,25.7-52.2,18-80.6
			C1501.5,886.5,1471.8,894.8,1451.8,916.7z"/>
		<path class="st3" d="M1447.4,930.6l-7.2,25.3l2.5-29.8c-1.9-1.7-3.8-3.2-5.7-4.7c-0.5,6-1.3,10.7-2.3,13.4c-2.6,6.9-6-2-7.7-20
			c-15.2-8.5-32.3-11.9-48.6-10.1c-4.2,23.8,3.2,50.2,22.3,70.2c19,20,45.1,29,69.4,26.3c4.2-23.8-3.2-50.2-22.3-70.2L1447.4,930.6z
			"/>
		<path class="st3" d="M1457.8,948.3c-14,15.3-17.9,36.4-12.6,56.2c20.1,3.7,40.7-2.1,54.7-17.4c14-15.3,17.9-36.4,12.6-56.2
			C1492.5,927.3,1471.8,933.1,1457.8,948.3z"/>
		<path class="st3" d="M1573.8,1098.1c-14,15.3-17.9,36.4-12.6,56.2c20.1,3.7,40.7-2.1,54.7-17.4c14-15.3,17.9-36.4,12.6-56.2
			C1608.4,1077,1587.7,1082.8,1573.8,1098.1z"/>
		<path class="st3" d="M1848.4,1179.1c1.3,18-0.5,26.9-4.3,20c-1.5-2.7-3.1-7.5-4.6-13.4c-1.7,1.5-3.3,3.1-4.9,4.7l7.6,29.8
			l-11.5-25.3l-0.3,0.4c-15.6,20-18.5,46.4-10.2,70.2c24.7,2.7,49.3-6.3,64.9-26.3c15.6-20,18.5-46.4,10.2-70.2
			C1878.7,1167.2,1862.2,1170.6,1848.4,1179.1z"/>
		<path class="st3" d="M1795.2,1222.2c-21.1,3.1-37.3,16.5-44.6,34.5c14.9,14.8,35.9,22.8,57.1,19.8c21.1-3.1,37.3-16.5,44.6-34.5
			C1837.4,1227.2,1816.3,1219.1,1795.2,1222.2z"/>
		<path class="st3" d="M1705.9,890.2c-20,21.9-25.7,52.2-18,80.6c28.8,5.3,58.4-3,78.4-25c20-21.9,25.7-52.2,18-80.6
			C1755.6,860,1725.9,868.3,1705.9,890.2z"/>
		<path class="st3" d="M1714.5,1148.5c-16.6-15.3-38.2-21.1-57.6-17.4c-2,19.7,5.6,40.9,22.2,56.2c16.6,15.3,38.2,21.1,57.6,17.4
			C1738.7,1185,1731,1163.8,1714.5,1148.5z"/>
		<path class="st1" d="M1443.2,1120.7c-14,15.3-17.9,36.4-12.6,56.2c20.1,3.7,40.7-2.1,54.7-17.4c14-15.3,17.9-36.4,12.6-56.2
			C1477.8,1099.7,1457.1,1105.5,1443.2,1120.7z"/>
		<path class="st3" d="M1545.8,1092.2l-0.5-0.1l8.8,22.7l-14.3-23.6c-2.1-0.3-4.2-0.4-6.3-0.5c2.9,4.7,4.9,8.7,5.7,11.3
			c1.9,6.5-5,1.7-15.8-10.8c-14.6,1.7-27.6,8.3-37.3,18.3c10,20,29,35.8,52.2,40.7c23.2,4.9,45.2-2.3,59.6-17.2
			C1588,1112.8,1569,1097,1545.8,1092.2z"/>
		<path class="st3" d="M1610.2,968.4c-14.9-7.1-31-6.1-43.3,1.1c3.4,14.7,13.6,28.1,28.5,35.1c14.9,7.1,31,6.1,43.3-1.1
			C1635.4,988.9,1625.1,975.5,1610.2,968.4z"/>
		<path class="st1" d="M1629,890.7c-4.2,23.8,3.2,50.2,22.3,70.2l0.4,0.4l7.2-25.3l-2.5,29.8c1.9,1.7,3.8,3.2,5.7,4.7
			c0.5-6,1.3-10.7,2.3-13.4c2.6-6.9,6,2,7.7,20c15.2,8.5,32.3,11.9,48.6,10.1c4.2-23.8-3.2-50.2-22.3-70.2
			C1679.3,897,1653.2,888,1629,890.7z"/>
		<path class="st1" d="M1410.9,1038.5c-20,21.9-25.7,52.2-18,80.6c28.8,5.3,58.4-3,78.4-25c20-21.9,25.7-52.2,18-80.6
			C1460.5,1008.2,1430.9,1016.6,1410.9,1038.5z"/>
	</g>
	<ellipse class="st3" cx="1428.3" cy="1771.2" rx="970.9" ry="208.8"/>
	<path class="st2" d="M479.9,698c0-20.1,30.8-30.2,82.8-30.9c-116.2-15.9-193.4-9.1-193.4,22.6c0,49.4,186.1,140.3,415.7,203.1
		c136.2,37.3,257.1,56.2,332.9,55.2c-64.3-8.8-140.5-24.6-222.3-47C666,838.3,479.9,747.4,479.9,698z"/>
	<circle class="st4" cx="784.1" cy="642.5" r="167.5"/>
	<path class="st3" d="M1993,1313.6c-12.3,1-28.5-18-45.5-21c-30-5.3-37.4,18.4-63.2,17.8c-27.6-0.7-38.9-30.9-72.3-35.8
		c-46.2-6.8-63.2,53.4-141.4-1.9c-85.3-60.3-137.8,26.7-160.3,51.7l547,0C2038.5,1292.8,2014,1311.9,1993,1313.6z"/>
	<g>
		<path class="st1" d="M1231.6,1130.1h-215.3c-15.8,0-28.7,12.9-28.7,28.7v0c0,15.8,12.9,28.7,28.7,28.7h215.3
			c15.8,0,28.7-12.9,28.7-28.7v0C1260.3,1143,1247.4,1130.1,1231.6,1130.1z"/>
		<path class="st1" d="M949.9,1130.1h-14.4c-15.8,0-28.7,12.9-28.7,28.7v0c0,15.8,12.9,28.7,28.7,28.7h14.4
			c15.8,0,28.7-12.9,28.7-28.7v0C978.6,1143,965.6,1130.1,949.9,1130.1z"/>
	</g>
	<path class="st2" d="M2347.7,1160c-6.9,0.5-15.9-10-25.4-11.7c-16.8-3-20.9,10.3-35.3,9.9c-15.4-0.4-21.7-17.2-40.4-20
		c-25.8-3.8-35.3,29.8-79-1c-47.6-33.7-76.9,14.9-89.5,28.9l305.4,0C2373.1,1148.4,2359.4,1159.1,2347.7,1160z"/>
	<path class="st1" d="M2032.8,592.8c-12.2,1-28.3-17.9-45.3-20.9c-29.9-5.3-37.2,18.4-62.9,17.7c-27.5-0.7-38.7-30.7-71.9-35.6
		c-46-6.8-62.9,53.2-140.7-1.9c-84.9-60-137.1,26.6-159.5,51.5l544.3,0C2077.9,572.1,2053.6,591.1,2032.8,592.8z"/>
	<path class="st2" d="M905.1,553.6c-77.8,55-94.7-4.9-140.7,1.9c-33.2,4.9-44.5,34.9-71.9,35.6c-25.6,0.7-33-22.9-62.9-17.7
		c-17,3-33.1,21.8-45.3,20.9c-20.9-1.6-45.2-20.7-64,10.8l544.3,0C1042.2,580.2,990,493.5,905.1,553.6z"/>
	<g>
		<path class="st3" d="M1959.2,631.7c-11.7,39.4-4.8,81.6,22.3,112.1c27.1,30.5,68,42.1,108.3,34.7c11.7-39.4,4.8-81.6-22.3-112.1
			C2040.4,635.9,1999.4,624.3,1959.2,631.7z"/>
		<path class="st3" d="M1901.6,633.1c-33.9,30.5-50.1,72.7-47.2,112.1c38.6,7.3,82.1-4.2,116-34.7c33.9-30.5,50.1-72.7,47.2-112.1
			C1979,591,1935.5,602.6,1901.6,633.1z"/>
		<path class="st3" d="M2303,664.6l-127-18.4c-16.5-2.4-33.3,9.3-37.6,26.1c-4.3,16.8,5.7,32.3,22.2,34.7l127,18.4
			c16.5,2.4,33.3-9.3,37.6-26.1C2329.5,682.6,2319.5,667,2303,664.6z"/>
		<path class="st3" d="M2244.7,541.8l-249,249c-12.7,12.7-13.7,32.1-2.3,43.3c11.4,11.3,30.9,10.1,43.6-2.5l249-249
			c12.7-12.7,13.7-32.1,2.3-43.3C2276.9,528,2257.4,529.1,2244.7,541.8z"/>
		<path class="st3" d="M1697.5,752.2c-33.9,30.5-50.1,72.7-47.2,112.1c38.6,7.3,82.1-4.2,116-34.7c33.9-30.5,50.1-72.7,47.2-112.1
			C1774.8,710.1,1731.3,721.7,1697.5,752.2z"/>
		<path class="st3" d="M1919.5,806.6c-11.7,39.4-4.8,81.6,22.3,112.1c27.1,30.5,68,42.1,108.3,34.7c11.7-39.4,4.8-81.6-22.3-112.1
			C2000.7,810.9,1959.8,799.3,1919.5,806.6z"/>
		<path class="st3" d="M2053.1,781c-33.9,30.5-50.1,72.7-47.2,112.1c38.6,7.3,82.1-4.2,116-34.7c33.9-30.5,50.1-72.7,47.2-112.1
			C2130.4,738.9,2086.9,750.5,2053.1,781z"/>
		<path class="st3" d="M2139.3,817.5c-33.9,30.5-50.1,72.7-47.2,112.1c38.6,7.3,82.1-4.2,116-34.7c33.9-30.5,50.1-72.7,47.2-112.1
			C2216.7,775.5,2173.1,787,2139.3,817.5z"/>
		<path class="st3" d="M1857.6,862.7c-9.9-12.7-29.1-13.8-43.1-2.5c-13.9,11.3-17.2,30.7-7.3,43.3l193.6,249
			c9.9,12.7,29.1,13.8,43.1,2.5c13.9-11.3,17.2-30.7,7.3-43.3L1857.6,862.7z"/>
		<path class="st3" d="M1896,935.7l-131.1,18.4c-17,2.4-30.4,17.9-29.9,34.7c0.5,16.8,14.8,28.4,31.8,26.1l131.2-18.4
			c17-2.4,30.4-17.9,29.9-34.7C1927.2,945,1913,933.3,1896,935.7z"/>
		<polygon class="st3" points="1901.5,1629 2067.5,1629 2155.7,836 1989.7,836 		"/>
		<path class="st3" d="M2160.7,924.6c-33.9,30.5-50.1,72.7-47.2,112.1c38.6,7.3,82.1-4.2,116-34.7s50.1-72.7,47.2-112.1
			C2238.1,882.5,2194.6,894.1,2160.7,924.6z"/>
		<path class="st3" d="M2315.4,686.5l-249,249c-12.7,12.7-13.7,32.1-2.3,43.3c11.4,11.3,30.9,10.1,43.6-2.5l249-249
			c12.7-12.7,13.7-32.1,2.3-43.3C2347.6,672.7,2328,673.8,2315.4,686.5z"/>
		<path class="st3" d="M2217.4,693.1c-5.9-15.1-23.7-21.2-39.7-13.6c-16,7.6-24.1,26.1-18.1,41.2l39.2,99.2
			c5.9,15.1,23.7,21.2,39.7,13.6c16-7.6,24.1-26.1,18.1-41.2L2217.4,693.1z"/>
		<path class="st3" d="M2227.7,871.4c-11.7,39.4-4.8,81.6,22.3,112.1c27.1,30.5,68,42.1,108.3,34.7c11.7-39.4,4.8-81.6-22.3-112.1
			C2308.8,875.7,2267.9,864.1,2227.7,871.4z"/>
		<path class="st3" d="M2088.9,594.8c-11.7,39.4-4.8,81.6,22.3,112.1c27.1,30.5,68,42.1,108.3,34.7c11.7-39.4,4.8-81.6-22.3-112.1
			C2170,599,2129.1,587.5,2088.9,594.8z"/>
		<path class="st3" d="M2314.1,638c-33.9,30.5-50.1,72.7-47.2,112.1c38.6,7.3,82.1-4.2,116-34.7c33.9-30.5,50.1-72.7,47.2-112.1
			C2391.5,596,2348,607.5,2314.1,638z"/>
		<path class="st3" d="M1645.3,866.2c-11.7,39.4-4.8,81.6,22.3,112.1c27.1,30.5,68,42.1,108.3,34.7c11.7-39.4,4.8-81.6-22.3-112.1
			C1726.5,870.5,1685.5,858.9,1645.3,866.2z"/>
		<path class="st3" d="M2271.7,707.5c-12.4,33.1-9.2,69.8,11.7,97.7l0.4,0.6l16.9-35.2l-11.7,41.4c2.1,2.3,4.3,4.5,6.7,6.6
			c2.3-8.3,4.7-14.9,6.9-18.7c5.6-9.6,7.8,2.8,5.3,27.8c18.9,11.8,41.7,16.6,64.8,14.1c12.4-33.1,9.2-69.8-11.7-97.7
			C2340.1,716.2,2306.2,703.8,2271.7,707.5z"/>
		<path class="st3" d="M2120.9,722c-27.2,27.9-38.5,64.6-33.5,97.7c22.6,2.5,46.5-2.2,68-14.1c3.1-25,8.1-37.4,11.5-27.8
			c1.3,3.8,2.3,10.4,2.7,18.7c2.8-2.1,5.5-4.2,8.1-6.6l-2.5-41.4l9.1,35.2l0.6-0.6c27.2-27.9,38.5-64.6,33.5-97.7
			C2184.8,681.6,2148.1,694.1,2120.9,722z"/>
		<path class="st3" d="M1731.8,979.8c-3.1,25-8.1,37.4-11.5,27.8c-1.3-3.8-2.3-10.4-2.7-18.7c-2.8,2.1-5.5,4.2-8.1,6.6l2.5,41.4
			l-9.1-35.2l-0.6,0.6c-27.2,27.9-38.5,64.6-33.5,97.7c33.6,3.8,70.3-8.7,97.5-36.6c27.2-27.9,38.5-64.6,33.5-97.7
			C1777.2,963.2,1753.3,968,1731.8,979.8z"/>
		<path class="st3" d="M1870.4,772.6c-33.9,30.5-50.1,72.7-47.2,112.1c38.6,7.3,82.1-4.2,116-34.7c33.9-30.5,50.1-72.7,47.2-112.1
			C1947.7,730.5,1904.2,742.1,1870.4,772.6z"/>
		<path class="st3" d="M1742.3,754.2c-12.4,33.1-9.2,69.8,11.7,97.7l0.4,0.6l16.9-35.2l-11.7,41.4c2.1,2.3,4.3,4.5,6.7,6.6
			c2.3-8.3,4.7-14.9,6.9-18.7c5.6-9.6,7.8,2.8,5.3,27.8c18.9,11.8,41.7,16.6,64.8,14.1c12.4-33.1,9.2-69.8-11.7-97.7
			C1810.7,762.9,1776.8,750.4,1742.3,754.2z"/>
		<path class="st3" d="M1749.9,756.3c12.3-1.4,24.6-0.6,36.2,2.1c-13.8-4.5-28.7-5.9-43.7-4.3c-12.4,33.1-9.2,69.8,11.7,97.7
			l0.4,0.6l2.5-5.2C1740.3,820.4,1738.5,786.9,1749.9,756.3z"/>
		<path class="st3" d="M1780.8,848.7c-0.5,0.8-0.9,1.7-1.4,2.8c0.4,5.4,0.1,13.2-0.8,22.9c8.8,5.5,18.5,9.5,28.7,11.9
			c-7.4-2.4-14.5-5.7-21.1-9.8C1788.6,851.6,1786.4,839.2,1780.8,848.7z"/>
		<path class="st3" d="M1779,819.5l-16.9,35.2l-0.4-0.6l-0.4-0.6l-1.5,5.3c2.1,2.3,4.3,4.5,6.7,6.6c0.4-1.4,0.8-2.8,1.2-4.1
			l-0.3-0.3L1779,819.5z"/>
		<path class="st3" d="M1702.8,1001.7l-0.6,0.6c-27.2,27.9-38.5,64.6-33.5,97.7c3.4,0.4,6.8,0.6,10.3,0.6
			c-4.4-29.9,4.5-62.7,26.3-89.2L1702.8,1001.7z"/>
		<path class="st3" d="M1720.3,1007.6c-1.3-3.8-2.3-10.4-2.7-18.7c-2.8,2.1-5.5,4.2-8.1,6.6l0.6,10.6c0.8-0.9,1.7-1.8,2.5-2.7
			l0.6-0.6l9.1,35.2l-1.8-29.9C1720.4,1008,1720.3,1007.8,1720.3,1007.6z"/>
		<path class="st3" d="M1731.8,979.8c-0.9,7.5-2,13.8-3.2,18.8c0.5,4.3,1.2,7.8,2,10.1c3.4,9.6,8.4-2.8,11.5-27.8
			c18.3-10.1,38.3-15,57.7-14.7l-0.1-0.4C1777.2,963.2,1753.3,968,1731.8,979.8z"/>
		<path class="st3" d="M1773.3,922.1c-26.4-11.6-57.1-7.9-82.3,7.3c2.7,27.4,18.6,51.5,45.1,63.1c26.4,11.6,57.1,7.9,82.3-7.3
			C1815.6,957.9,1799.7,933.7,1773.3,922.1z"/>
		<path class="st3" d="M1887,540.9c-33.9,30.5-50.1,72.7-47.2,112.1c38.6,7.3,82.1-4.2,116-34.7c33.9-30.5,50.1-72.7,47.2-112.1
			C1964.4,498.8,1920.9,510.4,1887,540.9z"/>
		<path class="st3" d="M1877.1,560.2l-16.9,35.2l11.7-41.4c-2.1-2.3-4.3-4.5-6.7-6.6c-2.3,8.3-4.7,14.9-6.9,18.7
			c-5.6,9.6-7.8-2.8-5.3-27.8c-18.9-11.8-41.7-16.6-64.8-14.1c-12.4,33.1-9.2,69.8,11.8,97.7c21,27.9,54.9,40.4,89.3,36.6
			c12.4-33.1,9.2-69.8-11.8-97.7L1877.1,560.2z"/>
		<path class="st3" d="M1886.7,584.9c-23.6,21.2-34.9,50.7-32.9,78.2c26.9,5.1,57.2-3,80.8-24.2c23.6-21.2,35-50.7,32.9-78.2
			C1940.7,555.5,1910.4,563.6,1886.7,584.9z"/>
		<path class="st3" d="M2007,793.2c-23.6,21.2-35,50.7-32.9,78.2c26.9,5.1,57.2-3,80.8-24.2c23.6-21.2,34.9-50.7,32.9-78.2
			C2061,763.9,2030.6,772,2007,793.2z"/>
		<path class="st3" d="M2367,906c-3.1,25-8.1,37.4-11.5,27.8c-1.3-3.8-2.3-10.4-2.7-18.7c-2.8,2.1-5.5,4.2-8.1,6.6l2.5,41.4
			l-9.1-35.2l-0.6,0.6c-27.2,27.9-38.5,64.6-33.5,97.7c33.6,3.8,70.3-8.7,97.5-36.6c27.2-27.9,38.5-64.6,33.5-97.7
			C2412.5,889.4,2388.5,894.2,2367,906z"/>
		<path class="st3" d="M2281.2,966c-30.2,4.3-56.4,23-71.6,48c16.6,20.6,43.8,31.8,74,27.5c30.2-4.3,56.4-23,71.6-48
			C2338.6,972.9,2311.5,961.7,2281.2,966z"/>
		<path class="st3" d="M2247.9,504c-33.9,30.5-50.1,72.7-47.2,112.1c38.6,7.3,82.1-4.2,116-34.7c33.9-30.5,50.1-72.7,47.2-112.1
			C2325.3,461.9,2281.8,473.5,2247.9,504z"/>
		<path class="st3" d="M2113.6,839.3c-8.2,27.5-3.4,56.9,15.5,78.2c18.9,21.2,47.4,29.3,75.5,24.2c8.2-27.5,3.4-56.9-15.5-78.2
			C2170.2,842.2,2141.6,834.2,2113.6,839.3z"/>
		<path class="st3" d="M1819.1,824.8c-23.6,21.2-35,50.7-32.9,78.2c26.9,5.1,57.2-3,80.8-24.2c23.6-21.2,34.9-50.7,32.9-78.2
			C1873,795.5,1842.7,803.5,1819.1,824.8z"/>
		<path class="st3" d="M1969.7,785l-0.6-0.1l6.1,31.6l-13.4-32.8c-2.9-0.4-5.7-0.6-8.6-0.7c2.7,6.5,4.5,12.1,4.8,15.7
			c0.9,9.1-7.5,2.3-19-15.1c-20.7,2.4-40.7,11.5-56.9,25.4c8.4,27.9,30.6,49.8,61.5,56.6c31,6.8,63.5-3.2,87.7-24
			C2022.9,813.7,2000.7,791.8,1969.7,785z"/>
		<path class="st3" d="M2093.3,612.8c-18.8-9.8-41.4-8.5-60.6,1.6c0.7,20.4,11.2,39.1,30,48.9c18.8,9.8,41.4,8.5,60.6-1.6
			C2122.7,641.3,2112.1,622.6,2093.3,612.8z"/>
		<path class="st3" d="M2140.7,504.7c-12.4,33.1-9.2,69.8,11.8,97.7l0.4,0.6l16.9-35.2l-11.7,41.4c2.1,2.3,4.3,4.5,6.7,6.6
			c2.3-8.3,4.7-14.9,6.9-18.7c5.6-9.6,7.8,2.8,5.3,27.8c18.9,11.8,41.7,16.6,64.8,14.1c12.4-33.1,9.2-69.8-11.8-97.7
			C2209.1,513.4,2175.2,500.9,2140.7,504.7z"/>
		<path class="st3" d="M1796.7,710.3c-33.9,30.5-50.1,72.7-47.2,112.1c38.6,7.3,82.1-4.2,116-34.7c33.9-30.5,50.1-72.7,47.2-112.1
			C1874.1,668.2,1830.5,679.8,1796.7,710.3z"/>
	</g>
	<path class="st3" d="M1129.6,486.3c-8.3,44.6,4.8,92.4,39.3,126.9c34.5,34.5,82.3,47.6,126.9,39.3c8.3-44.6-4.8-92.4-39.3-126.9
		C1222,491.1,1174.2,478,1129.6,486.3z"/>
	<path class="st3" d="M1064.5,487.9c-34.5,34.5-47.6,82.3-39.3,126.9c44.6,8.3,92.4-4.8,126.9-39.3c34.5-34.5,47.6-82.3,39.3-126.9
		C1146.8,440.3,1099,453.4,1064.5,487.9z"/>
	<g>
		<path class="st3" d="M1523,523.6l-146.2-20.9c-19-2.7-36.6,10.5-39.3,29.5c-2.7,19,10.5,36.6,29.5,39.3l146.2,20.9
			c19,2.7,36.6-10.5,39.3-29.5C1555.2,543.9,1542,526.3,1523,523.6z"/>
		<path class="st3" d="M1490.6,381.6c-14.3-12.8-36.3-11.5-49.1,2.9L1191,666.4c-12.8,14.3-11.5,36.3,2.9,49.1
			c14.3,12.8,36.3,11.5,49.1-2.9l250.6-281.9C1506.2,416.4,1504.9,394.4,1490.6,381.6z"/>
	</g>
	<g>
		<path class="st3" d="M1052.8,442.5c-19-2.7-36.6,10.5-39.3,29.5l-20.9,146.2c-2.7,19,10.5,36.6,29.5,39.3
			c19,2.7,36.6-10.5,39.3-29.5l20.9-146.2C1085,462.8,1071.8,445.3,1052.8,442.5z"/>
		<path class="st2" d="M1052.8,442.5c-19-2.7-36.6,10.5-39.3,29.5l-20.9,146.2c-1.6,11,2.2,21.5,9.3,28.9c-0.1-2,0-4.1,0.3-6.2
			l20.9-146.2c2.7-19,20.3-32.2,39.3-29.5c8,1.1,15,4.9,20.2,10.4C1082,459.1,1069.7,445,1052.8,442.5z"/>
		<path class="st3" d="M1202.4,752.1L920.6,501.6c-14.3-12.8-36.3-11.5-49.1,2.9c-12.8,14.3-11.5,36.3,2.9,49.1L1156.2,804
			c14.3,12.8,36.3,11.5,49.1-2.9C1218.1,786.9,1216.8,764.9,1202.4,752.1z"/>
		<path class="st2" d="M1170.1,790.2L888.2,539.6c-12.3-11-15-28.7-7.4-42.6c-3.4,1.9-6.6,4.3-9.3,7.4
			c-12.8,14.3-11.5,36.3,2.9,49.1L1156.2,804c14.3,12.8,36.3,11.5,49.1-2.9c1.8-2,3.3-4.2,4.6-6.5
			C1197.3,801.6,1181.4,800.2,1170.1,790.2z"/>
	</g>
	<g>
		<path class="st3" d="M806.1,478.6c-8.3,44.6,4.8,92.4,39.3,126.9c34.5,34.5,82.3,47.6,126.9,39.3c8.3-44.6-4.8-92.4-39.3-126.9
			C898.5,483.4,850.7,470.3,806.1,478.6z"/>
		<path class="st2" d="M847.9,478.6c1.8-0.3,3.5-0.6,5.3-0.9c-15.6-2.3-31.5-2-47.1,0.9c-8.3,44.6,4.8,92.4,39.3,126.9
			c33.1,33.1,78.6,46.5,121.6,40.2c-29.2-4.3-57.4-17.7-79.9-40.2C852.7,571.1,839.6,523.2,847.9,478.6z"/>
	</g>
	<path class="st3" d="M848.4,622.7c-34.5,34.5-47.6,82.3-39.3,126.9c44.6,8.3,92.4-4.8,126.9-39.3c34.5-34.5,47.6-82.3,39.3-126.9
		C930.7,575.1,882.9,588.2,848.4,622.7z"/>
	<path class="st3" d="M1106.7,684.4c-8.3,44.6,4.8,92.4,39.3,126.9c34.5,34.5,82.3,47.6,126.9,39.3c8.3-44.6-4.8-92.4-39.3-126.9
		C1199.1,689.2,1151.3,676.1,1106.7,684.4z"/>
	<path class="st3" d="M1254.6,655.3c-34.5,34.5-47.6,82.3-39.3,126.9c44.6,8.3,92.4-4.8,126.9-39.3c34.5-34.5,47.6-82.3,39.3-126.9
		C1337,607.7,1289.1,620.8,1254.6,655.3z"/>
	<path class="st3" d="M1356.8,696.7c-34.5,34.5-47.6,82.3-39.3,126.9c44.6,8.3,92.4-4.8,126.9-39.3c34.5-34.5,47.6-82.3,39.3-126.9
		C1439.2,649.1,1391.4,662.2,1356.8,696.7z"/>
	<path class="st3" d="M1043.6,747.8c-12.8-14.3-34.7-15.6-49.1-2.9c-14.3,12.8-15.6,34.7-2.9,49.1l250.6,281.9
		c12.8,14.3,34.7,15.6,49.1,2.9c14.3-12.8,15.6-34.7,2.9-49.1L1043.6,747.8z"/>
	<path class="st3" d="M1096.3,830.5l-146.2,20.9c-19,2.7-32.2,20.3-29.5,39.3c2.7,19,20.3,32.2,39.3,29.5l146.2-20.9
		c19-2.7,32.2-20.3,29.5-39.3C1132.8,841,1115.2,827.8,1096.3,830.5z"/>
	<rect x="1189.8" y="717.6" class="st3" width="187.9" height="897.8"/>
	<path class="st3" d="M1394.6,817.9c-34.5,34.5-47.6,82.3-39.3,126.9c44.6,8.3,92.4-4.8,126.9-39.3c34.5-34.5,47.6-82.3,39.3-126.9
		C1476.9,770.3,1429.1,783.4,1394.6,817.9z"/>
	<path class="st3" d="M1588.8,545.5c-14.3-12.8-36.3-11.5-49.1,2.9l-250.6,281.9c-12.8,14.3-11.5,36.3,2.9,49.1
		c14.3,12.8,36.3,11.5,49.1-2.9l250.6-281.9C1604.4,580.2,1603.1,558.2,1588.8,545.5z"/>
	<path class="st3" d="M1429.6,555.8c-8.6-17.1-29.5-24-46.6-15.4c-17.1,8.6-24,29.5-15.4,46.6l56.9,112.3
		c8.6,17.1,29.5,24,46.6,15.4c17.1-8.6,24-29.5,15.4-46.6L1429.6,555.8z"/>
	<path class="st3" d="M1463.7,757.7c-8.3,44.6,4.8,92.4,39.3,126.9c34.5,34.5,82.3,47.6,126.9,39.3c8.3-44.6-4.8-92.4-39.3-126.9
		C1556.1,762.5,1508.3,749.4,1463.7,757.7z"/>
	<path class="st3" d="M1271.7,444.5c-8.3,44.6,4.8,92.4,39.3,126.9c34.5,34.5,82.3,47.6,126.9,39.3c8.3-44.6-4.8-92.4-39.3-126.9
		C1364.2,449.3,1316.3,436.2,1271.7,444.5z"/>
	<path class="st3" d="M1532.2,493.5c-34.5,34.5-47.6,82.3-39.3,126.9c44.6,8.3,92.4-4.8,126.9-39.3c34.5-34.5,47.6-82.3,39.3-126.9
		C1614.5,445.9,1566.7,459,1532.2,493.5z"/>
	<path class="st3" d="M803.8,751.8c-8.3,44.6,4.8,92.4,39.3,126.9c34.5,34.5,82.3,47.6,126.9,39.3c8.3-44.6-4.8-92.4-39.3-126.9
		C896.2,756.6,848.4,743.5,803.8,751.8z"/>
	<path class="st1" d="M1493,572.2c-9.8,37.5-1.7,79.1,25.6,110.6l0.6,0.6l14.7-39.8l-8,46.9c2.7,2.6,5.5,5.1,8.4,7.4
		c1.6-9.4,3.4-16.9,5.4-21.2c5.1-10.8,9.2,3.2,9.5,31.5c22.9,13.4,49.3,18.8,75.2,15.9c9.8-37.5,1.7-79.1-25.6-110.6
		C1571.4,582,1531.5,567.9,1493,572.2z"/>
	<path class="st1" d="M1324,588.5c-27.3,31.6-35.5,73.1-25.6,110.6c25.9,2.9,52.3-2.5,75.2-15.9c0.3-28.3,4.4-42.3,9.5-31.5
		c2,4.3,3.9,11.8,5.4,21.2c2.9-2.3,5.7-4.8,8.4-7.4l-8-46.9l14.7,39.8l0.6-0.6c27.3-31.6,35.5-73.1,25.6-110.6
		C1391.2,542.8,1351.3,557,1324,588.5z"/>
	<path class="st2" d="M831.9,749.4c-9.4-0.1-18.9,0.7-28.2,2.4c-8.3,44.6,4.8,92.4,39.3,126.9c34.5,34.5,82.3,47.6,126.9,39.3
		c0.5-2.8,1-5.7,1.3-8.6c-35.8-0.5-71.4-14.4-98.8-41.7C840.3,835.5,826.7,791.5,831.9,749.4z"/>
	<path class="st1" d="M915.9,880.4c-0.3,28.3-4.4,42.3-9.5,31.5c-2-4.3-3.9-11.8-5.4-21.2c-2.9,2.3-5.7,4.8-8.4,7.4l8,46.9
		l-14.7-39.8l-0.6,0.6c-27.3,31.6-35.5,73.1-25.6,110.6c38.5,4.3,78.5-9.9,105.7-41.4c27.3-31.6,35.5-73.1,25.6-110.6
		C965.3,861.6,938.8,867,915.9,880.4z"/>
	<path class="st2" d="M1189.8,980.5L1010.7,779c-10.4-11.7-11.5-28.5-3.7-41.2c-4.5,1.4-8.7,3.8-12.5,7.1
		c-14.3,12.8-15.6,34.7-2.9,49.1l198.2,222.9v598.4h41.8V717.6h-41.8V980.5z"/>
	<path class="st3" d="M1046.7,645.8c-34.5,34.5-47.6,82.3-39.3,126.9c44.6,8.3,92.4-4.8,126.9-39.3c34.5-34.5,47.6-82.3,39.3-126.9
		C1129.1,598.2,1081.3,611.3,1046.7,645.8z"/>
	<path class="st1" d="M899.5,625c-9.8,37.5-1.7,79.1,25.6,110.6l0.6,0.6l14.7-39.8l-8,46.9c2.7,2.6,5.5,5.1,8.4,7.4
		c1.6-9.4,3.4-16.9,5.4-21.2c5.1-10.8,9.2,3.2,9.5,31.5c22.9,13.4,49.3,18.8,75.2,15.9c9.8-37.5,1.7-79.1-25.6-110.6
		C978,634.9,938,620.7,899.5,625z"/>
	<path class="st2" d="M934.5,738.7l-0.6-0.6l-0.6-0.7l-1,6c2.7,2.6,5.5,5.1,8.4,7.4c0.3-1.6,0.5-3.2,0.8-4.7l-0.4-0.4l8-46.9
		L934.5,738.7z"/>
	<path class="st2" d="M955,732c-0.4,0.9-0.8,2-1.3,3.2c1.1,6.1,1.8,14.9,1.9,26c10.7,6.3,22.2,10.8,34,13.5
		c-8.7-2.7-17.2-6.4-25.2-11.1C964.2,735.2,960.1,721.2,955,732z"/>
	<path class="st2" d="M899.5,625c-9.8,37.5-1.7,79.1,25.6,110.6l0.6,0.6l2.2-5.9c-22.3-30.4-28.6-68.4-19.5-103
		c13.8-1.5,27.7-0.7,41.2,2.4C933.4,624.8,916.3,623.2,899.5,625z"/>
	<path class="st2" d="M885.9,905.3l-0.6,0.6c-27.3,31.6-35.5,73.1-25.6,110.6c3.9,0.4,7.8,0.7,11.7,0.7c-8.7-33.8-2.8-70.9,18.5-101
		L885.9,905.3z"/>
	<path class="st2" d="M906.4,911.9c-2-4.3-3.9-11.8-5.4-21.2c-2.9,2.3-5.7,4.8-8.4,7.4l2,12c0.8-1,1.7-2,2.5-3l0.6-0.6l14.7,39.8
		l-5.8-33.8C906.6,912.3,906.5,912.1,906.4,911.9z"/>
	<path class="st2" d="M915.9,880.4c-0.1,8.5-0.5,15.6-1.2,21.3c1.1,4.9,2.3,8.8,3.6,11.5c5.1,10.8,9.2-3.2,9.5-31.5
		c19.4-11.4,41.4-17,63.5-16.7l-0.1-0.5C965.3,861.6,938.8,867,915.9,880.4z"/>
	<g>
		<path class="st3" d="M1642,1021.5l-146.2-20.9c-19-2.7-36.6,10.5-39.3,29.5c-2.7,19,10.5,36.6,29.5,39.3l146.2,20.9
			c19,2.7,36.6-10.5,39.3-29.5C1674.2,1041.8,1661,1024.2,1642,1021.5z"/>
		<path class="st2" d="M1642,1021.5l-146.2-20.9c-11-1.6-21.5,2.2-28.9,9.3c2-0.1,4.1,0,6.2,0.3l146.2,20.9
			c19,2.7,32.2,20.3,29.5,39.3c-1.1,8-4.9,15-10.4,20.2c16.5-0.6,30.7-12.9,33.1-29.8C1674.2,1041.8,1661,1024.2,1642,1021.5z"/>
		<path class="st3" d="M1609.7,879.5c-14.3-12.8-36.3-11.5-49.1,2.9L1310,1164.3c-12.8,14.3-11.5,36.3,2.9,49.1
			c14.3,12.8,36.3,11.5,49.1-2.9l250.6-281.9C1625.3,914.3,1624,892.3,1609.7,879.5z"/>
		<path class="st2" d="M1609.7,879.5c-14.3-12.8-36.3-11.5-49.1,2.9L1310,1164.3c-12.8,14.3-11.5,36.3,2.9,49.1
			c2,1.8,4.2,3.3,6.5,4.6c-6.8-12.5-5.5-28.5,4.6-39.8l250.6-281.9c11-12.3,28.7-15,42.6-7.4
			C1615.2,885.4,1612.7,882.3,1609.7,879.5z"/>
	</g>
	<path class="st3" d="M1236.4,863.8c-12.2,0-22.2,10-22.2,22.2v206.2c0,12.2,10,22.2,22.2,22.2c12.2,0,22.2-10,22.2-22.2V885.9
		C1258.6,873.7,1248.6,863.8,1236.4,863.8z"/>
	<path class="st0" d="M1265.4,1252.5c-10,0-18.2,8.2-18.2,18.2v169.7c0,10,8.2,18.2,18.2,18.2c10,0,18.3-8.2,18.3-18.2v-169.7
		C1283.7,1260.8,1275.5,1252.5,1265.4,1252.5z"/>
	<path class="st0" d="M1317.7,998.2c-10,0-18.2,8.2-18.2,18.2v58.7c0,10,8.2,18.2,18.2,18.2c10,0,18.3-8.2,18.3-18.2v-58.7
		C1336,1006.5,1327.8,998.2,1317.7,998.2z"/>
	<g>
		<circle class="st5" cx="986.6" cy="920.8" r="47.3"/>
		<path class="st4" d="M959.3,919.2c0-21.3,14.1-39.4,33.5-45.3c-2-0.3-4.1-0.4-6.2-0.4c-26.1,0-47.3,21.2-47.3,47.3
			c0,26.1,21.2,47.3,47.3,47.3c4.8,0,9.4-0.7,13.8-2.1C977.2,963,959.3,943.2,959.3,919.2z"/>
	</g>
	<path class="st2" d="M955.6,815.1c-31.4-13.1-65.7-8.9-92.3,8.2c6.5,31,27.6,58.3,58.9,71.4c31.4,13.1,65.7,8.9,92.3-8.2
		C1008.1,855.6,987,828.2,955.6,815.1z"/>
	<path class="st3" d="M1036.4,383.5c-34.5,34.5-47.6,82.3-39.3,126.9c44.6,8.3,92.4-4.8,126.9-39.3c34.5-34.5,47.6-82.3,39.3-126.9
		C1118.7,335.9,1070.9,349,1036.4,383.5z"/>
	<path class="st1" d="M1027.6,405.3l-14.7,39.8l8-46.9c-2.7-2.6-5.5-5.1-8.4-7.4c-1.6,9.4-3.4,16.9-5.4,21.2
		c-5.1,10.8-9.2-3.2-9.5-31.5c-22.9-13.4-49.3-18.8-75.2-15.9c-9.8,37.5-1.7,79.1,25.6,110.6c27.3,31.6,67.2,45.7,105.7,41.4
		c9.8-37.5,1.7-79.1-25.6-110.6L1027.6,405.3z"/>
	<path class="st2" d="M1041.7,433.3c-24.1,24.1-33.2,57.4-27.4,88.5c31.1,5.8,64.4-3.3,88.5-27.4c24.1-24.1,33.2-57.4,27.4-88.5
		C1099,400.1,1065.7,409.2,1041.7,433.3z"/>
	<path class="st3" d="M1384.7,1503.4l-23.2-4.4l-4,24.5c-2.1,12.8,6.7,25.2,19.4,27.6l23.2,4.4l3.9-24.5
		C1406.2,1518.3,1397.5,1505.8,1384.7,1503.4z"/>
	<path class="st3" d="M1373,1559.4l-25.8-4.9l-4.4,27.3c-2.3,14.3,7.4,28.2,21.7,30.8l25.8,4.9l4.4-27.3
		C1396.9,1576,1387.2,1562.1,1373,1559.4z"/>
	<path class="st3" d="M1394.5,1590.9l-4.3,26.6l29.8-5.3c13.8-2.5,27-16.4,29.4-31.1l4.3-26.6l-29.8,5.3
		C1410.1,1562.3,1396.9,1576.3,1394.5,1590.9z"/>
	<path class="st3" d="M1404.1,1531.7l-3.9,23.9l26.7-4.7c12.4-2.2,24.2-14.7,26.3-27.9l3.9-23.9l-26.7,4.7
		C1418,1506,1406.2,1518.6,1404.1,1531.7z"/>
	<path class="st3" d="M1420.8,1428.2l0.1-0.4c1.6-9.8-5.1-19.4-14.9-21.3l-17.8-3.4l-3,18.8c-1.6,9.8,5.1,19.4,14.9,21.3l17.8,3.4h0
		l0,0l20.5-3.6c9.5-1.7,18.6-11.3,20.3-21.4l3-18.4l-20.5,3.6C1431.5,1408.5,1422.4,1418.1,1420.8,1428.2z"/>
	<path class="st3" d="M1412.7,1478.1l-3.4,21.1l23.6-4.2c10.9-1.9,21.4-13,23.3-24.6l3.4-21.1l-23.6,4.2
		C1425.1,1455.4,1414.6,1466.5,1412.7,1478.1z"/>
	<path class="st3" d="M1395.6,1453.1l-20.5-3.9l-3.5,21.6c-1.8,11.3,5.9,22.3,17.2,24.5l20.5,3.9l3.5-21.6
		C1414.6,1466.2,1406.9,1455.2,1395.6,1453.1z"/>
	<g>
		<path class="st3" d="M1226.7,1543h-41.6c-22.9,0-41.6,18.7-41.6,41.6v0c0,22.9,18.7,41.6,41.6,41.6h41.6
			c22.9,0,41.6-18.7,41.6-41.6v0C1268.3,1561.7,1249.6,1543,1226.7,1543z"/>
		<path class="st0" d="M1220.8,1554.1h-28.1c-15.5,0-28.1,12.6-28.1,28.1v0c0,15.5,12.6,28.1,28.1,28.1h28.1
			c15.5,0,28.1-12.6,28.1-28.1v0C1248.9,1566.8,1236.3,1554.1,1220.8,1554.1z"/>
	</g>
	<g>
		<path class="st3" d="M1370.9,1492.3h-83.5c-45.9,0-83.5,37.6-83.5,83.5v0c0,45.9,37.6,83.5,83.5,83.5h83.5
			c45.9,0,83.5-37.6,83.5-83.5v0C1454.4,1529.9,1416.8,1492.3,1370.9,1492.3z"/>
		<path class="st0" d="M1347,1511.9h-56.4c-31,0-56.4,25.4-56.4,56.4v0c0,31,25.4,56.4,56.4,56.4h56.4c31,0,56.4-25.4,56.4-56.4v0
			C1403.4,1537.2,1378.1,1511.9,1347,1511.9z"/>
		<path class="st6" d="M1321.2,1526.1h-32.9c-18.1,0-32.9,14.8-32.9,32.9s14.8,32.9,32.9,32.9h32.9c18.1,0,32.9-14.8,32.9-32.9
			S1339.3,1526.1,1321.2,1526.1z"/>
	</g>
	<g>
		<path class="st3" d="M1441.5,1571.5h-48.7c-26.8,0-48.7,21.9-48.7,48.7v0c0,26.8,21.9,48.7,48.7,48.7h48.7
			c26.8,0,48.7-21.9,48.7-48.7v0C1490.2,1593.4,1468.3,1571.5,1441.5,1571.5z"/>
		<path class="st0" d="M1434.6,1584.5h-32.9c-18.1,0-32.9,14.8-32.9,32.9c0,18.1,14.8,32.9,32.9,32.9h32.9
			c18.1,0,32.9-14.8,32.9-32.9C1467.5,1599.3,1452.7,1584.5,1434.6,1584.5z"/>
	</g>
	<path class="st2" d="M1204.1,669.2c-24.1,24.1-33.2,57.4-27.4,88.5c31.1,5.8,64.4-3.3,88.5-27.4c24.1-24.1,33.2-57.4,27.4-88.5
		C1261.5,636,1228.1,645.1,1204.1,669.2z"/>
	<path class="st1" d="M1625.8,796.9c-0.3,28.3-4.4,42.3-9.5,31.5c-2-4.3-3.9-11.8-5.4-21.2c-2.9,2.3-5.7,4.8-8.4,7.4l8,46.9
		l-14.7-39.8l-0.6,0.6c-27.3,31.6-35.5,73.1-25.6,110.6c38.5,4.3,78.5-9.9,105.7-41.4s35.5-73.1,25.6-110.6
		C1675.2,778.1,1648.7,783.5,1625.8,796.9z"/>
	<path class="st2" d="M1536.3,864.8c-33.7,4.8-61,26-75,54.4c21.4,23.3,53.6,36,87.2,31.1c33.7-4.8,61-26,75-54.4
		C1602.1,872.6,1569.9,859.9,1536.3,864.8z"/>
	<g>
		<path class="st2" d="M1087.3,1076l-74.3,29.8c-9.7,3.9-14.3,14.8-10.5,24.5c3.9,9.7,14.8,14.3,24.5,10.5l74.3-29.8
			c9.7-3.9,14.3-14.8,10.5-24.5C1107.9,1076.8,1096.9,1072.1,1087.3,1076z"/>
		<path class="st2" d="M1206.3,1138.3L1038,1022.1c-8.6-5.9-20.3-3.8-26.2,4.8c-5.9,8.6-3.8,20.3,4.8,26.2l168.3,116.2
			c8.6,5.9,20.3,3.8,26.2-4.8C1217,1155.9,1214.8,1144.2,1206.3,1138.3z"/>
	</g>
	<path class="st2" d="M983.6,1000c-23.2,3.3-42,17.9-51.7,37.5c14.8,16,36.9,24.8,60.1,21.4c23.2-3.3,42-17.9,51.7-37.5
		C1028.9,1005.4,1006.8,996.7,983.6,1000z"/>
	<path class="st2" d="M1010.2,1086.4c-23.2-3.3-45.4,5.4-60.1,21.4c9.7,19.5,28.5,34.1,51.7,37.5c23.2,3.3,45.4-5.4,60.1-21.5
		C1052.2,1104.3,1033.4,1089.7,1010.2,1086.4z"/>
	<path class="st2" d="M1023,987.1c-16.9,16.2-23.7,39-20.2,60.5c21.3,4.5,44.4-1.3,61.4-17.5c16.9-16.2,23.7-39,20.2-60.5
		C1063.1,965.1,1040,970.9,1023,987.1z"/>
	<path class="st2" d="M1094,1036.1c-16.9,16.2-23.7,39-20.2,60.5c21.3,4.5,44.4-1.3,61.4-17.5c16.9-16.2,23.7-39,20.2-60.5
		C1134,1014.1,1110.9,1019.9,1094,1036.1z"/>
	<path class="st3" d="M1421.9,1070.9c-8.3,44.6,4.8,92.4,39.3,126.9c34.5,34.5,82.3,47.6,126.9,39.3c8.3-44.6-4.8-92.4-39.3-126.9
		C1514.3,1075.7,1466.5,1062.6,1421.9,1070.9z"/>
	<path class="st3" d="M1440.4,341.7c-34.5,34.5-47.6,82.3-39.3,126.9c44.6,8.3,92.4-4.8,126.9-39.3c34.5-34.5,47.6-82.3,39.3-126.9
		C1522.7,294.1,1474.9,307.2,1440.4,341.7z"/>
	<g>
		<circle class="st1" cx="1434.8" cy="858.2" r="47.3"/>
		<path class="st4" d="M1407.5,856.5c0-21.3,14.1-39.4,33.5-45.3c-2-0.3-4.1-0.4-6.2-0.4c-26.1,0-47.3,21.2-47.3,47.3
			c0,26.1,21.2,47.3,47.3,47.3c4.8,0,9.4-0.7,13.8-2.1C1425.4,900.4,1407.5,880.6,1407.5,856.5z"/>
	</g>
	<path class="st2" d="M1330.5,721.3c-5.8,31.1,3.3,64.4,27.4,88.5c24.1,24.1,57.4,33.2,88.5,27.4c5.8-31.1-3.3-64.4-27.4-88.5
		C1394.9,724.7,1361.6,715.6,1330.5,721.3z"/>
	<g>
		<circle class="st5" cx="1106.9" cy="739.6" r="47.3"/>
		<path class="st4" d="M1079.6,737.9c0-21.3,14.1-39.4,33.5-45.3c-2-0.3-4.1-0.4-6.2-0.4c-26.1,0-47.3,21.2-47.3,47.3
			c0,26.1,21.2,47.3,47.3,47.3c4.8,0,9.4-0.7,13.8-2.1C1097.5,781.8,1079.6,761.9,1079.6,737.9z"/>
	</g>
	<path class="st2" d="M995.3,704.9c-24.1,24.1-33.2,57.4-27.4,88.5c31.1,5.8,64.4-3.3,88.5-27.4c24.1-24.1,33.2-57.4,27.4-88.5
		C1052.7,671.7,1019.3,680.9,995.3,704.9z"/>
	<path class="st1" d="M1160.8,659.9l-0.7-0.2l10.8,35.8l-19.3-37.2c-3.3-0.4-6.6-0.7-9.8-0.8c3.9,7.4,6.6,13.7,7.4,17.7
		c2.2,10.3-8.2,2.6-23.4-17.1c-23.2,2.7-44.6,13-61.3,28.8c13,31.6,40.9,56.4,76.8,64.1c35.9,7.7,71.5-3.6,96.3-27.1
		C1224.6,692.4,1196.7,667.6,1160.8,659.9z"/>
	<g>
		<circle class="st5" cx="1595.4" cy="1075.9" r="47.3"/>
		<path class="st4" d="M1568.1,1074.2c0-21.3,14.1-39.4,33.5-45.3c-2-0.3-4.1-0.4-6.2-0.4c-26.1,0-47.3,21.2-47.3,47.3
			c0,26.1,21.2,47.3,47.3,47.3c4.8,0,9.4-0.7,13.8-2.1C1586,1118.1,1568.1,1098.3,1568.1,1074.2z"/>
	</g>
	<path class="st3" d="M1645.1,964.1c-34.5,34.5-47.6,82.3-39.3,126.9c44.6,8.3,92.4-4.8,126.9-39.3c34.5-34.5,47.6-82.3,39.3-126.9
		C1727.4,916.5,1679.6,929.6,1645.1,964.1z"/>
	<path class="st2" d="M1279.1,464.9c-22.5-11.1-48-9.6-68.4,1.8c3.3,23.1,17.6,44.3,40.1,55.4c22.5,11.1,48,9.6,68.4-1.8
		C1315.9,497.2,1301.6,476,1279.1,464.9z"/>
	<path class="st1" d="M1375.5,1118.1c-27.3,31.6-35.5,73.1-25.6,110.6c25.9,2.9,52.3-2.5,75.2-15.9c0.3-28.3,4.4-42.3,9.5-31.5
		c2,4.3,3.9,11.8,5.4,21.2c2.9-2.3,5.7-4.8,8.4-7.4l-8-46.9l14.7,39.8l0.6-0.6c27.3-31.6,35.5-73.1,25.6-110.6
		C1442.7,1072.4,1402.8,1086.5,1375.5,1118.1z"/>
	<path class="st2" d="M1458.4,1042.2c-22.5-11.1-48-9.6-68.4,1.8c3.3,23.1,17.6,44.3,40.1,55.4c22.5,11.1,48,9.6,68.4-1.8
		C1495.2,1074.5,1480.9,1053.4,1458.4,1042.2z"/>
	<path class="st1" d="M1319.1,342.5c-9.8,37.5-1.7,79.1,25.6,110.6l0.6,0.6L1360,414l-8,46.9c2.7,2.6,5.5,5.1,8.4,7.4
		c1.6-9.4,3.4-16.9,5.4-21.2c5.1-10.8,9.2,3.2,9.5,31.5c22.9,13.4,49.3,18.8,75.2,15.9c9.8-37.5,1.7-79.1-25.6-110.6
		C1397.6,352.4,1357.7,338.2,1319.1,342.5z"/>
	<path class="st3" d="M1094.4,1498.3l-131.8-68.8c-21.2-11.1-47.4-2.9-58.5,18.4c-11.1,21.2-2.9,47.4,18.4,58.5l131.8,68.8
		c21.2,11.1,47.4,2.9,58.5-18.4C1123.8,1535.5,1115.6,1509.4,1094.4,1498.3z"/>
	<path class="st1" d="M913.1,1435.9l-134.9,124.5c-17.6,16.2-18.8,43.7-2.5,61.3c16.2,17.6,43.7,18.8,61.3,2.5l134.9-124.5
		c17.6-16.2,18.8-43.7,2.5-61.3C958.2,1420.8,930.7,1419.7,913.1,1435.9z"/>
	<path class="st3" d="M942.1,1457.4l-134.9,124.5c-15,13.8-18.1,35.8-8.6,53c13.3,2.8,27.7-0.6,38.4-10.5l134.9-124.5
		c15-13.8,18.1-35.8,8.6-53C967.2,1444,952.8,1447.5,942.1,1457.4z"/>
	<path class="st3" d="M1040.1,1377.5l-62.6,62.6c-15.3,15.3-15.3,40.1,0,55.4c15.3,15.3,40.1,15.3,55.4,0l62.6-62.6
		c15.3-15.3,15.3-40.1,0-55.4S1055.4,1362.3,1040.1,1377.5z"/>
	<path class="st3" d="M1106.3,1352.2L1106.3,1352.2c-36.2,0-65.9,29.6-65.9,65.9v108.7c0,36.2,29.6,65.9,65.9,65.9h0
		c36.2,0,65.9-29.6,65.9-65.9v-108.7C1172.2,1381.9,1142.5,1352.2,1106.3,1352.2z"/>
	<path class="st7" d="M1112.7,1251.9L1112.7,1251.9c-31.3-10.2-65.2,7-75.4,38.3l-7.6,23.4c-10.2,31.3,7,65.2,38.3,75.3l0,0
		c31.3,10.2,65.2-7,75.3-38.3l7.6-23.4C1161.2,1296,1144,1262.1,1112.7,1251.9z"/>
	<path class="st8" d="M1037.4,1290.2l-7.6,23.4c-7,21.5-1.1,44.2,13.5,59.6c20.8-3.9,39.1-18.7,46.1-40.2l7.6-23.4
		c7-21.5,1.1-44.2-13.5-59.6C1062.6,1253.9,1044.4,1268.7,1037.4,1290.2z"/>
	<path class="st3" d="M1142.4,1278.7L1142.4,1278.7c-15.1-4.9-31.6,3.4-36.5,18.6l-9.5,29.3c-4.9,15.1,3.4,31.6,18.6,36.5l0,0
		c15.1,4.9,31.6-3.4,36.5-18.6l9.5-29.3C1165.9,1300,1157.6,1283.6,1142.4,1278.7z"/>
	<path class="st3" d="M1129.2,1275.5l-14.9-4.8c-11.1-3.6-23.1,2.5-26.7,13.5c-3.6,11.1,2.5,23.1,13.5,26.7l14.9,4.8
		c11.1,3.6,23-2.5,26.7-13.5C1146.3,1291.1,1140.2,1279.1,1129.2,1275.5z"/>
	<g>
		
			<ellipse transform="matrix(0.3099 -0.9508 0.9508 0.3099 -502.9451 1968.9326)" class="st7" cx="1104.9" cy="1330.9" rx="14.9" ry="14.9"/>
		
			<ellipse transform="matrix(0.3099 -0.9508 0.9508 0.3099 -502.934 1968.9608)" class="st7" cx="1104.9" cy="1330.9" rx="8.1" ry="8.1"/>
	</g>
	<path class="st3" d="M1125.7,1494.9c-8.9-22.2-34.2-33-56.4-24.1c-22.2,8.9-33,34.2-24.1,56.4l41.8,104.4
		c8.9,22.2,34.2,33,56.4,24.1c22.2-8.9,33-34.2,24.1-56.4L1125.7,1494.9z"/>
	<path class="st3" d="M1185.1,1383c-7.8-22.7-32.5-34.8-55.2-27c-22.7,7.8-34.8,32.5-27,55.2l13.9,40.4c7.8,22.7,32.5,34.8,55.2,27
		c22.7-7.8,34.8-32.5,27-55.2L1185.1,1383z"/>
	<path class="st2" d="M913.1,1435.9l-134.9,124.5c-17.6,16.2-18.8,43.7-2.5,61.3c11.5,12.5,28.8,16.7,44.1,12.3
		c-8.4-1.8-16.4-6.2-22.7-13c-16.2-17.6-15.1-45.1,2.5-61.3l134.9-124.5c5.1-4.7,11-7.9,17.3-9.7
		C938.4,1422.5,923.9,1426,913.1,1435.9z"/>
	<path class="st3" d="M756.5,1571.6c-35.8,0-64.8,29-64.8,64.8h129.7C821.4,1600.6,792.4,1571.6,756.5,1571.6z"/>
	<path class="st8" d="M956.8,1363.8c-15.2-15.3-39.9-15.4-55.2-0.2c-15.3,15.2-15.4,39.9-0.2,55.2l76,76.5
		c15.2,15.3,39.9,15.4,55.2,0.2c15.3-15.2,15.4-39.9,0.2-55.2L956.8,1363.8z"/>
	<path class="st7" d="M956.8,1363.8c-6.6-6.7-15.1-10.4-23.7-11.3c-1.1,0.9-2.2,1.8-3.2,2.8c-15.3,15.2-15.4,39.9-0.2,55.2l76,76.5
		c6.6,6.7,15.1,10.4,23.7,11.3c1.1-0.9,2.2-1.8,3.2-2.8c15.3-15.2,15.4-39.9,0.2-55.2L956.8,1363.8z"/>
	<g>
		<path class="st5" d="M972.1,1345.8c0-0.5,0-1,0.1-1.5c-11.2-1.7-19.8-11.3-19.8-23c0-4.1,1.1-8,3-11.4c-5.1-1.9-10.6-2.9-16.4-2.9
			c-26.1,0-47.3,21.2-47.3,47.3c0,26.1,21.2,47.3,47.3,47.3c23.9,0,43.7-17.8,46.9-40.8C978.2,1360.1,972.1,1353.7,972.1,1345.8z"/>
		<path class="st4" d="M911.7,1352.7c0-21.3,14.1-39.4,33.5-45.3c-2-0.3-4.1-0.4-6.2-0.4c-26.1,0-47.3,21.2-47.3,47.3
			c0,26.1,21.2,47.3,47.3,47.3c4.8,0,9.5-0.7,13.8-2.1C929.6,1396.5,911.7,1376.7,911.7,1352.7z"/>
	</g>
	<path class="st9" d="M1037.4,1290.2l-7.6,23.4c-6.6,20.3-1.6,41.8,11.2,57.1c-3.6-11.5-3.8-24.1,0.2-36.3l7.6-23.4
		c7-21.5,25.2-36.3,46.1-40.2c0.8,0.8,1.5,1.7,2.3,2.5c-2.7-8.7-7.4-16.7-13.7-23.3C1062.6,1253.9,1044.4,1268.7,1037.4,1290.2z"/>
	<path class="st3" d="M1146.8,1255.5l-16.4-5.3l-16.4-5.3l-54.1-17.6c-9.7-3.2-15.1-13.7-11.9-23.4l-5.8,17.6l-6.2,19l-3,9.1
		c-5,15.5,3.5,32.2,18.9,37.3l76.4,24.9c15.5,5,32.2-3.5,37.3-18.9v0C1170.8,1277.3,1162.3,1260.5,1146.8,1255.5z"/>
	<path class="st3" d="M1049,1338.2c-7.4,0-12.4,6-11.3,13.4c1.1,7.4,8,13.4,15.4,13.4c7.4,0,12.4-6,11.3-13.4
		C1063.3,1344.1,1056.4,1338.2,1049,1338.2z"/>
	<path class="st0" d="M1112.7,1248.4l-14.9-4.8c-11.1-3.6-23.1,2.5-26.7,13.5c-3.6,11.1,2.5,23,13.5,26.7l14.9,4.8
		c11.1,3.6,23-2.5,26.7-13.5C1129.9,1264,1123.8,1252,1112.7,1248.4z"/>
	<path class="st2" d="M1048.1,1203.8l-5.8,17.6l-6.2,19l-3,9.1c-5,15.5,3.5,32.2,18.9,37.3l5.7,1.9c-8-7.6-11.4-19.4-7.7-30.6l3-9.1
		l6.2-19l0.9-2.8l-0.2-0.1C1050.3,1224,1044.9,1213.5,1048.1,1203.8z"/>
	<path class="st3" d="M2101.9,1633.3l-4.2,15.7l17.9-3.1c8.3-1.4,17-9.7,19.2-18.4l4.2-15.7l-17.9,3.1
		C2112.9,1616.4,2104.2,1624.7,2101.9,1633.3z"/>
	<path class="st3" d="M2101.5,1581.6l-13.4-2.6l-3.8,14.5c-2,7.6,2.4,14.9,9.8,16.3l13.4,2.6l3.8-14.5
		C2113.3,1590.4,2108.9,1583.1,2101.5,1581.6z"/>
	<path class="st3" d="M2091.1,1614.7l-15-2.9l-4.3,16.1c-2.2,8.4,2.7,16.6,10.9,18.2l15,2.9l4.3-16.1
		C2104.3,1624.5,2099.3,1616.3,2091.1,1614.7z"/>
	<path class="st3" d="M2119.5,1566.6l0.1-0.3c1.8-6.7-2.1-13.2-8.7-14.5l-11.9-2.3l-3.4,12.8c-1.8,6.7,2.1,13.2,8.7,14.5l11.9,2.3
		L2119.5,1566.6C2119.5,1566.6,2119.5,1566.6,2119.5,1566.6z"/>
	<path class="st3" d="M2127.3,1537.1l0.1-0.2c1.5-5.8-1.9-11.5-7.5-12.6l-10.3-2l-2.9,11.1c-1.5,5.8,1.9,11.5,7.5,12.6l10.3,2h0l0,0
		l12.3-2.2c5.7-1,11.7-6.7,13.3-12.7l2.9-10.9l-12.3,2.2C2134.9,1525.5,2128.9,1531.2,2127.3,1537.1z"/>
	<path class="st3" d="M2111.2,1598.3l-3.7,14.1l16.1-2.8c7.4-1.3,15.2-8.7,17.3-16.5l3.7-14.1l-16.1,2.8
		C2121,1583.2,2113.2,1590.6,2111.2,1598.3z"/>
	<path class="st3" d="M2119.5,1566.6l-3.3,12.5l14.2-2.5c6.6-1.1,13.4-7.7,15.3-14.6l3.3-12.5l-14.2,2.5
		C2128.2,1553.2,2121.3,1559.8,2119.5,1566.6z"/>
	<path class="st3" d="M1874.1,1451l12.3,2.2l0,0h0l10.3-2c5.7-1.1,9.1-6.7,7.5-12.6l-2.9-11.1l-10.3,2c-5.7,1.1-9.1,6.7-7.5,12.6
		l0.1,0.2c-1.6-6-7.5-11.6-13.3-12.6l-12.3-2.2l2.9,10.9C1862.4,1444.3,1868.4,1450,1874.1,1451z"/>
	<path class="st3" d="M1880.5,1481.8l14.2,2.5l-3.3-12.5c-1.8-6.9-8.7-13.4-15.3-14.6l-14.2-2.5l3.3,12.5
		C1867,1474.1,1873.9,1480.7,1880.5,1481.8z"/>
	<path class="st3" d="M1915.2,1467.5l-3.4-12.8l-11.9,2.3c-6.5,1.3-10.4,7.8-8.7,14.5l3.4,12.8l11.9-2.3
		C1913.1,1480.7,1917,1474.2,1915.2,1467.5z"/>
	<path class="st3" d="M1889.7,1520.1l-17.9-3.1l4.2,15.7c2.3,8.7,10.9,16.9,19.2,18.4l17.9,3.1l-4.2-15.7
		C1906.7,1529.8,1898,1521.6,1889.7,1520.1z"/>
	<path class="st3" d="M1934.8,1517l-15,2.9c-8.2,1.6-13.2,9.8-10.9,18.2l4.3,16.1l15-2.9c8.2-1.6,13.2-9.8,10.9-18.2L1934.8,1517z"
		/>
	<path class="st3" d="M1903.5,1517.6l13.4-2.6c7.4-1.4,11.8-8.8,9.8-16.3l-3.8-14.5l-13.4,2.6c-7.4,1.4-11.8,8.8-9.8,16.3l0.1,0.3
		c0,0,0,0,0,0L1903.5,1517.6z"/>
	<path class="st3" d="M1887.4,1514.8l16.1,2.8l-3.7-14.1c-2.1-7.8-9.8-15.2-17.3-16.5l-16.1-2.8l3.7,14.1
		C1872.2,1506.1,1880,1513.5,1887.4,1514.8z"/>
	<path class="st3" d="M1701.8,1526.5l-47.7-3.2c-25.9-1.7-47.1,18.1-47.1,44.1v0c0,26,21.2,48.7,47.1,50.4l47.7,3.2
		c25.9,1.7,47.1-18.1,47.1-44.1v0C1748.8,1550.9,1727.7,1528.2,1701.8,1526.5z"/>
	<path class="st3" d="M2096.5,1524.5l-27.4-1.8c-14.9-1-27,10.4-27,25.3v0c0,14.9,12.1,27.9,27,28.9l27.4,1.8
		c14.9,1,27-10.4,27-25.3v0C2123.5,1538.5,2111.4,1525.5,2096.5,1524.5z"/>
	<path class="st3" d="M1920.9,1507.8l-27.4-1.8c-14.8-1-27,10.4-27,25.3v0c0,14.9,12.1,27.9,27,28.9l27.4,1.8
		c14.8,1,27-10.4,27-25.3v0C1947.9,1521.9,1935.8,1508.8,1920.9,1507.8z"/>
	<path class="st3" d="M1540.4,1537.3l-27.4-1.8c-14.9-1-27,10.4-27,25.3v0c0,14.9,12.1,27.9,27,28.9l27.4,1.8
		c14.9,1,27-10.4,27-25.3v0C1567.4,1551.3,1555.2,1538.3,1540.4,1537.3z"/>
	<path class="st0" d="M1789.2,1638.2l-27.4-1.8c-14.9-1-27,10.4-27,25.3v0c0,14.9,12.1,27.9,27,28.9l27.4,1.8
		c14.9,1,27-10.4,27-25.3v0C1816.2,1652.2,1804.1,1639.2,1789.2,1638.2z"/>
	<g>
		<path class="st0" d="M1571.2,1583.4c-26.1,0-46,21.2-44.3,47.3c1.7,26.1,24.3,47.3,50.4,47.3c26.1,0,46-21.2,44.3-47.3
			C1619.9,1604.6,1597.4,1583.4,1571.2,1583.4z"/>
		<path class="st1" d="M1546.9,1629.1c-1.4-21.3,11.6-39.4,30.6-45.3c-2.1-0.3-4.1-0.4-6.3-0.4c-26.1,0-46,21.2-44.3,47.3
			c1.7,26.1,24.3,47.3,50.4,47.3c4.8,0,9.4-0.7,13.7-2.1C1567.7,1673,1548.5,1653.1,1546.9,1629.1z"/>
	</g>
	<g>
		<path class="st0" d="M1912,1532c-13.3,0-25.2,10.8-26.6,24c-1.4,13.3,8.2,24,21.5,24c13.3,0,25.2-10.8,26.6-24
			S1925.3,1532,1912,1532z"/>
		<path class="st1" d="M1915.2,1532.2c-1-0.1-2.1-0.2-3.1-0.2c-13.3,0-25.2,10.8-26.6,24c-1.4,13.3,8.2,24,21.5,24
			c2.4,0,4.8-0.4,7.1-1c-11.6-1.5-19.6-11.6-18.3-23.8C1896.9,1544.4,1905,1535.2,1915.2,1532.2z"/>
	</g>
	<path class="st1" d="M757.1,873.1c0,26.2-21.3,47.5-47.5,47.5c26.2,0,47.5,21.3,47.5,47.5c0-26.2,21.3-47.5,47.5-47.5
		C778.3,920.6,757.1,899.4,757.1,873.1z"/>
	<path class="st1" d="M1749.9,580.8c0,26.2-21.3,47.5-47.5,47.5c26.2,0,47.5,21.3,47.5,47.5c0-26.2,21.3-47.5,47.5-47.5
		C1771.2,628.3,1749.9,607,1749.9,580.8z"/>
	<path class="st2" d="M2370.5,1254.7c0,26.2-21.3,47.5-47.5,47.5c26.2,0,47.5,21.3,47.5,47.5c0-26.2,21.3-47.5,47.5-47.5
		C2391.8,1302.2,2370.5,1281,2370.5,1254.7z"/>
	<g>
		<path class="st1" d="M1007.7,1634.8l-15.2-2.7l2.9,13.5c1.6,7.4,8.7,14.5,15.7,15.7l15.2,2.7l-2.9-13.5
			C1021.8,1643.1,1014.7,1636,1007.7,1634.8z"/>
		<path class="st1" d="M1046.4,1632.1l-12.9,2.5c-7.1,1.4-11.7,8.4-10.1,15.6l0.1,0.3c0,0,0,0,0,0l2.9,13.5l12.9-2.5
			c7.1-1.4,11.7-8.4,10.1-15.6L1046.4,1632.1z"/>
		<path class="st1" d="M1013.1,1666.4l-17-3l3.2,15c1.8,8.3,9.7,16.2,17.5,17.5l17,3l-3.2-15
			C1028.8,1675.6,1020.9,1667.8,1013.1,1666.4z"/>
		<path class="st1" d="M1056.2,1663.4l-14.4,2.7c-7.9,1.5-13,9.3-11.3,17.4l3.3,15.4l14.4-2.7c7.9-1.5,13-9.3,11.3-17.4
			L1056.2,1663.4z"/>
	</g>
	<path class="st2" d="M644,1122.2c0,15.1-12.3,27.4-27.4,27.4c15.1,0,27.4,12.3,27.4,27.4c0-15.1,12.3-27.4,27.4-27.4
		C656.3,1149.6,644,1137.3,644,1122.2z"/>
	<path class="st2" d="M2022.1,425.3c0,15.1-12.3,27.4-27.4,27.4c15.1,0,27.4,12.3,27.4,27.4c0-15.1,12.3-27.4,27.4-27.4
		C2034.4,452.7,2022.1,440.4,2022.1,425.3z"/>
	<path class="st1" d="M2281.2,1266.7c-107.7,42.4-23.2,7.4-3.3-26.6c45.4-77.5-134.9,81.4-116.3,51.6c57.9-92.3-19.7-31.2-41.2-6.1
		c-74.8,87.7-45.4,32.1-55,22.5c-35.8-36.2-65.1,68.9-153.8,122.6c11.8-5.6,137.8-84.8,138-84.4c12.2,34.7,94-53.3,88.7-37.7
		c-12.2,35.7,87.1-44.2,76.5-34.4c-104.4,96-38.4,53.4,43.2,20.3C2323.6,1267.9,2322.9,1250.3,2281.2,1266.7z"/>
	<g>
		<path class="st3" d="M2309.8,1606.2l-22.6-4.4l-7,24.5c-3.6,12.8,3.6,25.2,16,27.6l22.6,4.4l7-24.5
			C2329.5,1621.1,2322.3,1608.6,2309.8,1606.2z"/>
		<path class="st3" d="M2325.7,1634.5l-6.8,23.9l27.3-4.7c12.6-2.2,26-14.7,29.8-27.9l6.8-23.9l-27.3,4.7
			C2342.8,1608.8,2329.4,1621.3,2325.7,1634.5z"/>
		<path class="st3" d="M2291.2,1662.2l-25.2-4.9l-7.8,27.3c-4.1,14.3,4,28.2,17.9,30.8l25.2,4.9l7.8-27.3
			C2313.1,1678.8,2305,1664.9,2291.2,1662.2z"/>
		<path class="st3" d="M2308.8,1693.7l-7.6,26.6l30.4-5.3c14.1-2.5,29-16.4,33.2-31.1l7.6-26.6l-30.4,5.3
			C2327.9,1665.1,2313,1679.1,2308.8,1693.7z"/>
	</g>
	<path class="st2" d="M691.7,1636.4h37.7c0-29.2,19.4-54,46-62c-6-1.8-12.3-2.8-18.9-2.8C720.7,1571.6,691.7,1600.6,691.7,1636.4z"
		/>
	<path class="st1" d="M1125.8,1631.6l-41.8-104.4c-8.5-21.1,0.8-44.9,20.8-54.9c-10.7-5.4-23.6-6.3-35.6-1.5
		c-22.2,8.9-33,34.2-24.1,56.4l41.8,104.4c8.9,22.2,34.2,33,56.4,24.1c1.1-0.5,2.2-1,3.3-1.5
		C1137.5,1649.6,1130,1641.8,1125.8,1631.6z"/>
	<path class="st3" d="M1125,1594.5c-35.8,0-64.8,29-64.8,64.8h129.7C1189.8,1623.6,1160.8,1594.5,1125,1594.5z"/>
	<path class="st2" d="M1060.2,1659.4h47.8c0-27.4,17-50.8,40.9-60.3c-7.4-2.9-15.5-4.6-23.9-4.6
		C1089.2,1594.5,1060.2,1623.6,1060.2,1659.4z"/>
	<g>
		<path class="st7" d="M1146.3,1395.7l-113.7,31.4c-23.1,6.4-36.6,30.3-30.2,53.4c6.4,23.1,30.3,36.6,53.4,30.2l113.7-31.4
			c23.1-6.4,36.6-30.3,30.2-53.4C1193.3,1402.9,1169.4,1389.3,1146.3,1395.7z"/>
		<path class="st8" d="M1138.9,1397.7l-106.3,29.4c-23.1,6.4-36.6,30.3-30.2,53.4c1.4,5.2,3.7,9.9,6.7,14l106.3-29.4
			c23.1-6.4,36.6-30.3,30.2-53.4C1144.2,1406.5,1141.9,1401.8,1138.9,1397.7z"/>
		<path class="st9" d="M1106.2,1411.3l-61.1,16.9c-12.4,3.4-19.7,16.3-16.2,28.6c3.4,12.4,16.3,19.7,28.6,16.2l61-16.9
			c12.4-3.4,19.7-16.3,16.2-28.6C1131.4,1415.2,1118.6,1407.9,1106.2,1411.3z"/>
	</g>
	<path class="st3" d="M608.7,1628.1c-8.8,2.7-21.7,17.2-31.9,34.8c-0.5-2-1.1-4.1-1.7-6.1c-8.6-27.5-24.4-47.1-35.4-43.6
		c-11,3.4-13,28.5-4.4,56c0.6,2.1,1.3,4.1,2,6c-18.4-8.7-37.3-13.3-46.1-10.6c-11,3.4-2.2,17,19.8,30.3
		c21.9,13.3,48.7,21.3,59.7,17.9c0.2-0.1,0.3-0.1,0.5-0.2l0.1,0l0,0l0.1,0l0.1,0l0,0c11-4.1,28-25.4,38.2-48.3
		C620.1,1640.9,619.7,1624.7,608.7,1628.1z"/>
	<path class="st3" d="M2254.5,1633c-7.3-2.3-22.8,1.5-38.1,8.7c0.6-1.6,1.2-3.3,1.7-5c7.1-22.8,5.4-43.5-3.7-46.3
		c-9.1-2.8-22.2,13.3-29.3,36.1c-0.5,1.7-1,3.4-1.4,5.1c-8.4-14.6-19.1-26.5-26.4-28.8c-9.1-2.8-9.4,10.6-0.7,29.9
		c8.5,18.9,22.5,36.5,31.6,39.9l0,0l0.1,0l0.1,0l0,0l0.1,0c0.1,0,0.3,0.1,0.4,0.1c9.1,2.8,31.2-3.8,49.3-14.8
		C2256.3,1647,2263.6,1635.8,2254.5,1633z"/>
	<path class="st3" d="M1881,1574.8c-7.3-2.3-22.8,1.5-38.1,8.7c0.6-1.6,1.2-3.3,1.7-5c7.1-22.8,5.4-43.5-3.7-46.3
		c-9.1-2.8-22.2,13.3-29.3,36.1c-0.5,1.7-1,3.4-1.4,5.1c-8.4-14.6-19.1-26.5-26.4-28.8c-9.1-2.8-9.4,10.6-0.7,29.9
		c8.5,18.9,22.5,36.5,31.6,39.9l0,0l0.1,0l0.1,0l0,0l0.1,0c0.1,0,0.3,0.1,0.4,0.1c9.1,2.8,31.2-3.8,49.3-14.8
		C1882.8,1588.8,1890.1,1577.6,1881,1574.8z"/>
	<g>
		<path class="st3" d="M492.1,1701.6h-69.6c-38.3,0-69.6,31.3-69.6,69.6s31.3,69.6,69.6,69.6h69.6c38.3,0,69.6-31.3,69.6-69.6
			S530.4,1701.6,492.1,1701.6z"/>
		<path class="st0" d="M472.3,1717.9h-47c-25.8,0-47,21.1-47,47v0c0,25.8,21.1,47,47,47h47c25.8,0,47-21.1,47-47v0
			C519.3,1739.1,498.2,1717.9,472.3,1717.9z"/>
		<path class="st6" d="M450.8,1729.8h-27.4c-15.1,0-27.4,12.3-27.4,27.4c0,15.1,12.3,27.4,27.4,27.4h27.4
			c15.1,0,27.4-12.3,27.4-27.4C478.2,1742.1,465.9,1729.8,450.8,1729.8z"/>
	</g>
	<g>
		<path class="st3" d="M2181.2,1678.1h-69.6c-38.3,0-76.8,31.3-85.5,69.6c-8.7,38.3,15.4,69.6,53.7,69.6h69.6
			c38.3,0,76.8-31.3,85.5-69.6C2243.7,1709.4,2219.5,1678.1,2181.2,1678.1z"/>
		<path class="st0" d="M2157.7,1694.4h-47c-25.8,0-51.8,21.1-57.7,47l0,0c-5.9,25.8,10.4,47,36.2,47h47c25.8,0,51.8-21.1,57.7-47v0
			C2199.8,1715.5,2183.5,1694.4,2157.7,1694.4z"/>
		<path class="st6" d="M2133.4,1706.3H2106c-15.1,0-30.2,12.3-33.7,27.4c-3.4,15.1,6.1,27.4,21.1,27.4h27.4
			c15.1,0,30.2-12.3,33.7-27.4C2158,1718.6,2148.5,1706.3,2133.4,1706.3z"/>
	</g>
	<g>
		<path class="st3" d="M2030.8,1761.9h-41.6c-22.9,0-41.6,18.7-41.6,41.6c0,22.9,18.7,41.6,41.6,41.6h41.6
			c22.9,0,41.6-18.7,41.6-41.6C2072.4,1780.6,2053.7,1761.9,2030.8,1761.9z"/>
		<path class="st0" d="M2024.9,1773h-28.1c-15.5,0-28.1,12.6-28.1,28.1c0,15.5,12.6,28.1,28.1,28.1h28.1c15.5,0,28.1-12.6,28.1-28.1
			C2053,1785.6,2040.4,1773,2024.9,1773z"/>
	</g>
	<path class="st2" d="M2392.6,717.6c0,15.1-12.3,27.4-27.4,27.4c15.1,0,27.4,12.3,27.4,27.4c0-15.1,12.3-27.4,27.4-27.4
		C2404.8,745,2392.6,732.7,2392.6,717.6z"/>
	<circle class="st2" cx="841" cy="1229.1" r="10.4"/>
	<circle class="st2" cx="2532.2" cy="655" r="10.4"/>
	<path class="st3" d="M362.3,1735.3c-8.8,2.7-21.7,17.2-31.9,34.8c-0.5-2-1.1-4.1-1.7-6.1c-8.6-27.5-24.4-47.1-35.4-43.6
		c-11,3.4-13,28.5-4.4,56c0.6,2.1,1.3,4.1,2,6c-18.4-8.7-37.3-13.3-46.1-10.6c-11,3.4-2.2,17,19.8,30.3
		c21.9,13.3,48.7,21.3,59.7,17.9c0.2-0.1,0.3-0.1,0.5-0.2l0.1,0l0,0l0.1,0l0.1,0l0,0c11-4.1,28-25.4,38.2-48.3
		C373.7,1748.1,373.3,1731.9,362.3,1735.3z"/>
	<path class="st3" d="M2850.8,1802.6c-8.8-2.7-27.6,1.8-46.1,10.6c0.7-2,1.4-4,2-6c8.6-27.5,6.6-52.6-4.4-56
		c-11-3.4-26.9,16.1-35.4,43.6c-0.6,2.1-1.2,4.1-1.7,6.1c-10.2-17.6-23.1-32.1-31.9-34.8c-11-3.4-11.4,12.8-0.9,36.2
		c10.3,22.9,27.2,44.2,38.2,48.3l0,0l0.1,0l0.1,0l0,0l0.1,0c0.2,0.1,0.3,0.1,0.5,0.2c11,3.4,37.7-4.6,59.7-17.9
		C2853,1819.6,2861.8,1806,2850.8,1802.6z"/>
	<path class="st2" d="M372.6,445.2c0,15.1-12.3,27.4-27.4,27.4c15.1,0,27.4,12.3,27.4,27.4c0-15.1,12.3-27.4,27.4-27.4
		C384.9,472.6,372.6,460.3,372.6,445.2z"/>
	<path class="st3" d="M317.4,920c-6.7,17.9-2.2,38.9,14.4,56.1l0.3,0.4l9.7-18.8l-5.7,22.6c1.6,1.5,3.3,2.8,5.1,4.2
		c1.1-4.5,2.4-8.1,3.7-10.1c3.3-5,5.7,2.1,5.5,16.1c14,8,30.5,12.2,46.6,12.3c6.7-17.9,2.2-38.9-14.4-56.1
		C366.1,929.5,341.5,920.2,317.4,920z"/>
	<path class="st3" d="M2553.7,1116.7c-16.5,17.2-21,38.2-14.4,56.1c16.1-0.1,32.5-4.4,46.6-12.3c-0.2-14,2.2-21.1,5.5-16.1
		c1.3,2,2.6,5.6,3.7,10.1c1.8-1.3,3.5-2.7,5.1-4.2l-5.7-22.6l9.7,18.8l0.3-0.4c16.5-17.2,21-38.2,14.4-56.1
		C2594.9,1090.1,2570.2,1099.5,2553.7,1116.7z"/>
	<path class="st3" d="M2482,888.8c-9.2,9.6-11.7,21.2-8,31.2c9-0.1,18.1-2.4,25.9-6.9c-0.1-7.8,1.2-11.8,3-9
		c0.7,1.1,1.4,3.1,2.1,5.6c1-0.7,1.9-1.5,2.8-2.3l-3.1-12.6l5.4,10.5l0.2-0.2c9.2-9.6,11.7-21.2,8-31.2
		C2505,874,2491.2,879.2,2482,888.8z"/>
	<path class="st3" d="M740.6,323.3c-3.7,10-1.2,21.7,8,31.2l0.2,0.2l5.4-10.5l-3.1,12.6c0.9,0.8,1.9,1.6,2.8,2.3
		c0.6-2.5,1.3-4.5,2.1-5.6c1.8-2.8,3.2,1.2,3,9c7.8,4.4,17,6.8,25.9,6.9c3.7-10,1.2-21.7-8-31.2C767.7,328.6,754,323.4,740.6,323.3z
		"/>
	<path class="st3" d="M357.4,1597.3c-6.7,17.9-2.2,38.9,14.4,56.1l0.3,0.4l9.7-18.8l-5.7,22.6c1.6,1.5,3.3,2.8,5.1,4.2
		c1.1-4.5,2.4-8.1,3.7-10.1c3.3-5,5.7,2.1,5.5,16.1c14,8,30.5,12.2,46.6,12.3c6.7-17.9,2.2-38.9-14.4-56.1
		C406.1,1606.8,381.5,1597.4,357.4,1597.3z"/>
	<path class="st3" d="M323.5,1460.5c-4.6,12.2-1.5,26.6,9.8,38.3l0.2,0.2l6.6-12.8l-3.9,15.5c1.1,1,2.3,1.9,3.5,2.8
		c0.8-3.1,1.6-5.6,2.5-6.9c2.3-3.4,3.9,1.5,3.7,11c9.6,5.4,20.8,8.3,31.9,8.4c4.6-12.2,1.5-26.6-9.8-38.3
		C356.8,1467,340,1460.6,323.5,1460.5z"/>
	<path class="st3" d="M2464,1670.3c-16.5,17.2-21,38.2-14.4,56.1c16.1-0.1,32.5-4.4,46.6-12.3c-0.2-14,2.2-21.1,5.5-16.1
		c1.3,2,2.6,5.6,3.7,10.1c1.8-1.3,3.5-2.7,5.1-4.2l-5.7-22.6l9.7,18.8l0.3-0.4c16.5-17.2,21-38.2,14.4-56.1
		C2505.2,1643.8,2480.5,1653.1,2464,1670.3z"/>
	<path class="st3" d="M2533.3,1558.3c-11.3,11.7-14.4,26.1-9.8,38.3c11-0.1,22.3-3,31.9-8.4c-0.1-9.6,1.5-14.5,3.7-11
		c0.9,1.4,1.8,3.8,2.5,6.9c1.2-0.9,2.4-1.9,3.5-2.8l-3.9-15.5l6.6,12.8l0.2-0.2c11.3-11.7,14.4-26.1,9.8-38.3
		C2561.5,1540.1,2544.7,1546.5,2533.3,1558.3z"/>
	<path class="st3" d="M2406.9,1414c-6.5,6.8-8.3,15.1-5.7,22.2c6.4,0,12.9-1.7,18.5-4.9c-0.1-5.5,0.9-8.4,2.2-6.4
		c0.5,0.8,1,2.2,1.5,4c0.7-0.5,1.4-1.1,2-1.6l-2.2-9l3.9,7.4l0.1-0.1c6.5-6.8,8.3-15.1,5.7-22.2
		C2423.2,1403.5,2413.4,1407.2,2406.9,1414z"/>
	<path class="st0" d="M1997.4,1404.3L1997.4,1404.3c-5.9,0-11.4,4.8-12.2,10.7l-14.8,106.9c-0.8,5.9,3.3,10.7,9.2,10.7h0
		c5.9,0,11.4-4.8,12.2-10.7l14.8-106.9C2007.4,1409.1,2003.3,1404.3,1997.4,1404.3z"/>
	<path class="st0" d="M2022.1,1049.9L2022.1,1049.9c-9.4,0-18.2,7.7-19.5,17.1l-23.6,171.1c-1.3,9.4,5.3,17.1,14.7,17.1h0
		c9.4,0,18.2-7.7,19.5-17.1l23.6-171.1C2038.2,1057.6,2031.5,1049.9,2022.1,1049.9z"/>
	<g>
		<path class="st3" d="M570.4,1768.8h-41.6c-22.9,0-41.6,18.7-41.6,41.6c0,22.9,18.7,41.6,41.6,41.6h41.6
			c22.9,0,41.6-18.7,41.6-41.6C612,1787.5,593.3,1768.8,570.4,1768.8z"/>
		<path class="st0" d="M564.5,1779.9h-28.1c-15.5,0-28.1,12.6-28.1,28.1c0,15.5,12.6,28.1,28.1,28.1h28.1
			c15.5,0,28.1-12.6,28.1-28.1C592.6,1792.6,580,1779.9,564.5,1779.9z"/>
	</g>
	<g>
		<path class="st3" d="M2449.6,1682.2H2380c-38.3,0-69.6,31.3-69.6,69.6c0,38.3,31.3,69.6,69.6,69.6h69.6
			c38.3,0,69.6-31.3,69.6-69.6C2519.2,1713.5,2487.8,1682.2,2449.6,1682.2z"/>
		<path class="st0" d="M2429.7,1698.5h-47c-25.8,0-47,21.1-47,47v0c0,25.8,21.1,47,47,47h47c25.8,0,47-21.1,47-47v0
			C2476.7,1719.6,2455.6,1698.5,2429.7,1698.5z"/>
		<path class="st6" d="M2408.2,1710.4h-27.4c-15.1,0-27.4,12.3-27.4,27.4c0,15.1,12.3,27.4,27.4,27.4h27.4
			c15.1,0,27.4-12.3,27.4-27.4C2435.6,1722.7,2423.3,1710.4,2408.2,1710.4z"/>
	</g>
	<g>
		<path class="st3" d="M2527.8,1749.4h-41.6c-22.9,0-41.6,18.7-41.6,41.6c0,22.9,18.7,41.6,41.6,41.6h41.6
			c22.9,0,41.6-18.7,41.6-41.6C2569.4,1768.1,2550.7,1749.4,2527.8,1749.4z"/>
		<path class="st0" d="M2521.9,1760.5h-28.1c-15.5,0-28.1,12.6-28.1,28.1c0,15.5,12.6,28.1,28.1,28.1h28.1
			c15.5,0,28.1-12.6,28.1-28.1C2550,1773.2,2537.4,1760.5,2521.9,1760.5z"/>
	</g>
	<g>
		<path class="st3" d="M1209.4,1803.7h-41.6c-22.9,0-41.6,18.7-41.6,41.6c0,22.9,18.7,41.6,41.6,41.6h41.6
			c22.9,0,41.6-18.7,41.6-41.6C1251,1822.4,1232.3,1803.7,1209.4,1803.7z"/>
		<path class="st0" d="M1203.5,1814.8h-28.1c-15.5,0-28.1,12.6-28.1,28.1c0,15.5,12.6,28.1,28.1,28.1h28.1
			c15.5,0,28.1-12.6,28.1-28.1C1231.6,1827.4,1218.9,1814.8,1203.5,1814.8z"/>
	</g>
	<path class="st0" d="M1264.7,1754.3c-8.8-2.7-27.6,1.8-46.1,10.6c0.7-2,1.4-4,2-6c8.6-27.5,6.6-52.6-4.4-56
		c-11-3.4-26.9,16.1-35.4,43.6c-0.6,2.1-1.2,4.1-1.7,6.1c-10.2-17.6-23.1-32.1-31.9-34.8c-11-3.4-11.4,12.8-0.9,36.2
		c10.3,22.9,27.2,44.2,38.2,48.3l0,0l0.1,0l0.1,0l0,0l0.1,0c0.2,0.1,0.3,0.1,0.5,0.2c11,3.4,37.7-4.6,59.7-17.9
		C1266.8,1771.3,1275.7,1757.8,1264.7,1754.3z"/>
	<g>
		<path class="st3" d="M1131.1,1736.5h-69.6c-38.3,0-69.6,31.3-69.6,69.6c0,38.3,31.3,69.6,69.6,69.6h69.6
			c38.3,0,69.6-31.3,69.6-69.6C1200.7,1767.8,1169.4,1736.5,1131.1,1736.5z"/>
		<path class="st0" d="M1111.3,1752.8h-47c-25.8,0-47,21.1-47,47v0c0,25.8,21.1,47,47,47h47c25.8,0,47-21.1,47-47v0
			C1158.3,1773.9,1137.1,1752.8,1111.3,1752.8z"/>
		<path class="st6" d="M1089.8,1764.7h-27.4c-15.1,0-27.4,12.3-27.4,27.4s12.3,27.4,27.4,27.4h27.4c15.1,0,27.4-12.3,27.4-27.4
			S1104.9,1764.7,1089.8,1764.7z"/>
	</g>
	<g>
		<path class="st0" d="M1781.8,1767.1c-8.8,2.7-21.7,17.2-31.9,34.8c-0.5-2-1.1-4.1-1.7-6.1c-8.6-27.5-24.4-47.1-35.4-43.6
			c-11,3.4-13,28.5-4.4,56c0.6,2.1,1.3,4.1,2,6c-18.4-8.7-37.3-13.3-46.1-10.6c-11,3.4-2.2,17,19.8,30.3
			c21.9,13.3,48.7,21.3,59.7,17.9c0.2-0.1,0.3-0.1,0.5-0.2l0.1,0l0,0l0.1,0l0.1,0l0,0c11-4.1,28-25.4,38.2-48.3
			C1793.2,1779.8,1792.8,1763.6,1781.8,1767.1z"/>
		<path class="st0" d="M1885.6,1824.5c-8.8-2.7-27.6,1.8-46.1,10.6c0.7-2,1.4-4,2-6c8.6-27.5,6.6-52.6-4.4-56
			c-11-3.4-26.9,16.1-35.4,43.6c-0.6,2.1-1.2,4.1-1.7,6.1c-10.2-17.6-23.1-32.1-31.9-34.8c-11-3.4-11.4,12.8-0.9,36.2
			c10.3,22.9,27.2,44.2,38.2,48.3l0,0l0.1,0l0.1,0l0,0l0.1,0c0.2,0.1,0.3,0.1,0.5,0.2c11,3.4,37.7-4.6,59.7-17.9
			C1887.8,1841.5,1896.6,1827.9,1885.6,1824.5z"/>
		<path class="st3" d="M1856.4,1844.5c-8.8-2.7-27.6,1.8-46.1,10.6c0.7-2,1.4-4,2-6c8.6-27.5,6.6-52.6-4.4-56
			c-11-3.4-26.9,16.1-35.4,43.6c-0.6,2.1-1.2,4.1-1.7,6.1c-10.2-17.6-23.1-32.1-31.9-34.8c-11-3.4-11.4,12.8-0.9,36.2
			c10.3,22.9,27.2,44.2,38.2,48.3l0,0l0.1,0l0.1,0l0,0l0.1,0c0.2,0.1,0.3,0.1,0.5,0.2c11,3.4,37.7-4.6,59.7-17.9
			C1858.6,1861.5,1867.5,1847.9,1856.4,1844.5z"/>
	</g>
	<g>
		<path class="st0" d="M793.3,1745.4c-5.6-1.7-17.5,1.2-29.1,6.7c0.5-1.2,0.9-2.5,1.3-3.8c5.4-17.4,4.2-33.3-2.8-35.4
			c-7-2.2-17,10.2-22.4,27.6c-0.4,1.3-0.8,2.6-1.1,3.9c-6.5-11.2-14.6-20.3-20.2-22c-7-2.2-7.2,8.1-0.6,22.9
			c6.5,14.5,17.2,27.9,24.2,30.5l0,0l0,0l0,0l0,0l0.1,0c0.1,0,0.2,0.1,0.3,0.1c7,2.2,23.9-2.9,37.7-11.3
			C794.7,1756.2,800.3,1747.6,793.3,1745.4z"/>
		<path class="st0" d="M727.7,1735.5c-5.6,1.7-13.7,10.9-20.2,22c-0.3-1.3-0.7-2.6-1.1-3.9c-5.4-17.4-15.4-29.8-22.4-27.6
			c-7,2.2-8.2,18-2.8,35.4c0.4,1.3,0.8,2.6,1.3,3.8c-11.6-5.5-23.6-8.4-29.1-6.7c-7,2.2-1.4,10.7,12.5,19.2
			c13.9,8.4,30.8,13.5,37.7,11.3c0.1,0,0.2-0.1,0.3-0.1l0.1,0l0,0l0,0l0,0l0,0c7-2.6,17.7-16.1,24.2-30.5
			C734.9,1743.6,734.7,1733.3,727.7,1735.5z"/>
		<path class="st3" d="M746.1,1748.1c-5.6,1.7-13.7,10.9-20.2,22c-0.3-1.3-0.7-2.6-1.1-3.9c-5.4-17.4-15.4-29.8-22.4-27.6
			c-7,2.2-8.2,18-2.8,35.4c0.4,1.3,0.8,2.6,1.3,3.8c-11.6-5.5-23.6-8.4-29.1-6.7c-7,2.2-1.4,10.7,12.5,19.2
			c13.9,8.4,30.8,13.5,37.7,11.3c0.1,0,0.2-0.1,0.3-0.1l0.1,0l0,0l0,0l0,0l0,0c7-2.6,17.7-16.1,24.2-30.5
			C753.4,1756.2,753.1,1746,746.1,1748.1z"/>
	</g>
	<g>
		<path class="st0" d="M1507.4,1735.8c-5.6-1.7-17.5,1.2-29.1,6.7c0.5-1.2,0.9-2.5,1.3-3.8c5.4-17.4,4.2-33.3-2.8-35.4
			c-7-2.2-17,10.2-22.4,27.6c-0.4,1.3-0.8,2.6-1.1,3.9c-6.5-11.2-14.6-20.3-20.2-22c-7-2.2-7.2,8.1-0.6,22.9
			c6.5,14.5,17.2,27.9,24.2,30.5l0,0l0,0l0,0l0,0l0.1,0c0.1,0,0.2,0.1,0.3,0.1c7,2.2,23.9-2.9,37.7-11.3
			C1508.7,1746.5,1514.3,1738,1507.4,1735.8z"/>
		<path class="st0" d="M1441.7,1725.9c-5.6,1.7-13.7,10.9-20.2,22c-0.3-1.3-0.7-2.6-1.1-3.9c-5.4-17.4-15.4-29.8-22.4-27.6
			c-7,2.2-8.2,18-2.8,35.4c0.4,1.3,0.8,2.6,1.3,3.8c-11.6-5.5-23.6-8.4-29.1-6.7c-7,2.2-1.4,10.7,12.5,19.2
			c13.9,8.4,30.8,13.5,37.7,11.3c0.1,0,0.2-0.1,0.3-0.1l0.1,0l0,0l0,0l0,0l0,0c7-2.6,17.7-16.1,24.2-30.5
			C1448.9,1733.9,1448.7,1723.7,1441.7,1725.9z"/>
		<path class="st3" d="M1460.2,1738.5c-5.6,1.7-13.7,10.9-20.2,22c-0.3-1.3-0.7-2.6-1.1-3.9c-5.4-17.4-15.4-29.8-22.4-27.6
			c-7,2.2-8.2,18-2.8,35.4c0.4,1.3,0.8,2.6,1.3,3.8c-11.6-5.5-23.6-8.4-29.1-6.7c-7,2.2-1.4,10.7,12.5,19.2
			c13.9,8.4,30.8,13.5,37.7,11.3c0.1,0,0.2-0.1,0.3-0.1l0.1,0l0,0l0,0l0,0l0,0c7-2.6,17.7-16.1,24.2-30.5
			C1467.4,1746.6,1467.1,1736.4,1460.2,1738.5z"/>
	</g>
</g>
</svg>
